<?xml version="1.0" encoding="UTF-8" standalone="no"?>
<!-- Created with Inkscape (http://www.inkscape.org/) -->

<svg
   width="5cm"
   height="5cm"
   viewBox="0 0 50 50"
   version="1.1"
   id="svg1"
   inkscape:version="1.3 (0e150ed6c4, 2023-07-21)"
   sodipodi:docname="l_parallele.svg"
   xmlns:inkscape="http://www.inkscape.org/namespaces/inkscape"
   xmlns:sodipodi="http://sodipodi.sourceforge.net/DTD/sodipodi-0.dtd"
   xmlns="http://www.w3.org/2000/svg"
   xmlns:svg="http://www.w3.org/2000/svg">
  <sodipodi:namedview
     id="namedview1"
     pagecolor="#ffffff"
     bordercolor="#666666"
     borderopacity="1.0"
     inkscape:showpageshadow="2"
     inkscape:pageopacity="0.0"
     inkscape:pagecheckerboard="0"
     inkscape:deskcolor="#d1d1d1"
     inkscape:document-units="mm"
     inkscape:zoom="2.2831969"
     inkscape:cx="30.001793"
     inkscape:cy="144.97217"
     inkscape:window-width="1916"
     inkscape:window-height="1041"
     inkscape:window-x="1920"
     inkscape:window-y="37"
     inkscape:window-maximized="1"
     inkscape:current-layer="layer1"
     showgrid="false" />
  <defs
     id="defs1">
    <rect
       x="34.327473"
       y="6.2689123"
       width="64.653549"
       height="26.847485"
       id="rect2" />
    <rect
       x="46.283253"
       y="125.83528"
       width="34.242775"
       height="14.170848"
       id="rect10" />
    <rect
       x="17.410908"
       y="34.869759"
       width="25.579346"
       height="20.151089"
       id="rect4" />
    <rect
       x="17.410908"
       y="34.869759"
       width="25.579346"
       height="20.151089"
       id="rect4-6" />
    <rect
       x="17.410908"
       y="34.869759"
       width="25.579346"
       height="20.151089"
       id="rect4-7" />
    <rect
       x="17.410908"
       y="34.869759"
       width="44.575764"
       height="12.991716"
       id="rect4-2" />
    <rect
       x="17.410908"
       y="34.869759"
       width="192.96184"
       height="15.978813"
       id="rect4-6-2" />
    <rect
       x="46.283253"
       y="125.83528"
       width="17.62265"
       height="16.143753"
       id="rect10-7" />
    <rect
       x="17.410908"
       y="34.869759"
       width="192.96184"
       height="15.978813"
       id="rect4-6-2-0" />
    <rect
       x="17.410908"
       y="34.869759"
       width="192.96184"
       height="15.978813"
       id="rect4-6-2-0-6" />
    <rect
       x="34.327473"
       y="6.2689123"
       width="64.653549"
       height="26.847485"
       id="rect2-3" />
    <rect
       x="34.327473"
       y="6.2689123"
       width="64.653549"
       height="26.847485"
       id="rect2-3-6" />
    <rect
       x="34.327473"
       y="6.2689123"
       width="64.653549"
       height="26.847485"
       id="rect2-6" />
    <rect
       x="34.327473"
       y="6.2689123"
       width="64.653549"
       height="26.847485"
       id="rect2-3-2" />
    <rect
       x="34.327473"
       y="6.2689123"
       width="64.653549"
       height="26.847485"
       id="rect2-3-6-6" />
  </defs>
  <g
     inkscape:label="Calque 1"
     inkscape:groupmode="layer"
     id="layer1">
    <path
       style="fill:none;stroke:#000000;stroke-width:0.33106;stroke-linecap:butt;stroke-linejoin:miter;stroke-dasharray:none;stroke-opacity:1"
       d="m 3.0887827,13.830879 10.8474723,-0.0042"
       id="path1"
       sodipodi:nodetypes="cc" />
    <path
       style="fill:none;stroke:#000000;stroke-width:0.33106;stroke-linecap:butt;stroke-linejoin:miter;stroke-dasharray:none;stroke-opacity:1"
       d="M 3.0887827,33.482628 15.836885,33.49946"
       id="path1-9"
       sodipodi:nodetypes="cc" />
    <path
       style="fill:none;stroke:#000000;stroke-width:0.33106;stroke-linecap:butt;stroke-linejoin:miter;stroke-dasharray:none;stroke-opacity:1"
       d="m 26.917654,33.538642 13.071731,-0.0042"
       id="path1-9-4"
       sodipodi:nodetypes="cc" />
    <path
       style="fill:none;stroke:#000000;stroke-width:0.33106;stroke-linecap:butt;stroke-linejoin:miter;stroke-dasharray:none;stroke-opacity:1"
       d="m 29.14189,13.958824 10.847473,-0.0042"
       id="path1-1"
       sodipodi:nodetypes="cc" />
    <path
       style="fill:none;stroke:#000000;stroke-width:0.33106;stroke-linecap:butt;stroke-linejoin:miter;stroke-dasharray:none;stroke-opacity:1"
       d="m 13.823421,9.9448756 2.701508,-0.0042"
       id="path1-6"
       sodipodi:nodetypes="cc" />
    <path
       style="fill:none;stroke:#000000;stroke-width:0.33106;stroke-linecap:butt;stroke-linejoin:miter;stroke-dasharray:none;stroke-opacity:1"
       d="M 13.834181,14.000447 13.833995,9.7709872"
       id="path1-27"
       sodipodi:nodetypes="cc" />
    <path
       style="fill:none;stroke:#000000;stroke-width:0.33106;stroke-linecap:butt;stroke-linejoin:miter;stroke-dasharray:none;stroke-opacity:1"
       d="M 29.300084,13.944432 29.30027,9.8295513"
       id="path1-27-0"
       sodipodi:nodetypes="cc" />
    <path
       style="fill:none;stroke:#000000;stroke-width:0.33106;stroke-linecap:butt;stroke-linejoin:miter;stroke-dasharray:none;stroke-opacity:1"
       d="m 13.81242,17.690768 3.983369,-0.04374"
       id="path1-6-2"
       sodipodi:nodetypes="cc" />
    <path
       style="fill:none;stroke:#000000;stroke-width:0.33106;stroke-linecap:butt;stroke-linejoin:miter;stroke-dasharray:none;stroke-opacity:1"
       d="m 13.82318,13.635197 -1.86e-4,4.22946"
       id="path1-27-3"
       sodipodi:nodetypes="cc" />
    <path
       style="fill:none;stroke:#000000;stroke-width:0.33106;stroke-linecap:butt;stroke-linejoin:miter;stroke-dasharray:none;stroke-opacity:1"
       d="m 29.289083,13.64698 1.86e-4,4.22946"
       id="path1-27-0-5"
       sodipodi:nodetypes="cc" />
    <text
       xml:space="preserve"
       transform="matrix(0.26458333,0,0,0.26458333,1.6688934,2.1514345)"
       id="text1"
       style="font-size:10.6667px;line-height:1.25;font-family:sans-serif;text-align:center;white-space:pre;shape-inside:url(#rect2);display:inline"><tspan
         x="50.836539"
         y="15.707061"
         id="tspan1">$L_1$</tspan></text>
    <text
       xml:space="preserve"
       transform="matrix(0.26458333,0,0,0.26458333,1.6688934,20.394305)"
       id="text1-0"
       style="font-size:10.6667px;line-height:1.25;font-family:sans-serif;text-align:center;white-space:pre;shape-inside:url(#rect2-3);display:inline"><tspan
         x="50.836539"
         y="15.707061"
         id="tspan2">$L_2$</tspan></text>
    <text
       xml:space="preserve"
       transform="matrix(0.26458333,0,0,0.26458333,2.7430824,36.586931)"
       id="text1-0-8"
       style="font-size:10.6667px;line-height:1.25;font-family:sans-serif;text-align:center;white-space:pre;shape-inside:url(#rect2-3-6);display:inline"><tspan
         x="40.776611"
         y="15.707061"
         id="tspan3">$L_{eq}$</tspan></text>
    <path
       style="display:inline;fill:none;stroke:#000000;stroke-width:0.312306;stroke-linecap:butt;stroke-linejoin:miter;stroke-dasharray:none;stroke-opacity:1"
       d="m 14.73214,17.671973 h 3.171334 c 0.23604,-1.962738 2.253539,-2.118467 2.253539,0.459476 0,1.414512 -0.913906,1.415495 -0.913906,-0.01902 0,-2.558925 2.251517,-2.566709 2.251517,-0.01296 0,1.448436 -0.903289,1.456221 -0.903289,0.02676 0,-2.572722 2.248998,-2.580507 2.248998,-0.01422 0,1.435898 -0.907644,1.443873 -0.907644,0.0047 0,-2.563027 2.296145,-2.563027 2.296145,0.0094 0,1.429745 -0.907667,1.429745 -0.907667,-0.011 0,-2.561442 1.946214,-2.405713 2.188065,-0.396139 l 3.681109,-0.0028"
       id="path4550-3"
       inkscape:connector-curvature="0"
       sodipodi:nodetypes="ccsssssssscc" />
    <path
       style="display:inline;fill:none;stroke:#0000ff;stroke-width:0.312306;stroke-linecap:butt;stroke-linejoin:miter;stroke-dasharray:none;stroke-opacity:1"
       d="m 14.732141,33.515647 h 3.171334 c 0.236039,-1.962738 2.253539,-2.118467 2.253539,0.459476 0,1.414512 -0.913907,1.415495 -0.913907,-0.01902 0,-2.558925 2.251516,-2.566709 2.251516,-0.01296 0,1.448436 -0.903288,1.456221 -0.903288,0.02676 0,-2.572722 2.248997,-2.580507 2.248997,-0.01422 0,1.435898 -0.907644,1.443873 -0.907644,0.0047 0,-2.563027 2.296145,-2.563027 2.296145,0.0094 0,1.429745 -0.907667,1.429745 -0.907667,-0.011 0,-2.561442 1.946214,-2.405713 2.188065,-0.396139 l 3.681109,-0.0028"
       id="path4550-3-2"
       inkscape:connector-curvature="0"
       sodipodi:nodetypes="ccsssssssscc" />
    <path
       style="display:inline;fill:none;stroke:#000000;stroke-width:0.312306;stroke-linecap:butt;stroke-linejoin:miter;stroke-dasharray:none;stroke-opacity:1"
       d="m 14.73214,9.9423836 h 3.171334 c 0.23604,-1.962738 2.253539,-2.118467 2.253539,0.4594764 0,1.414512 -0.913906,1.415495 -0.913906,-0.01902 0,-2.5589254 2.251517,-2.5667094 2.251517,-0.01296 0,1.448436 -0.903289,1.456221 -0.903289,0.02676 0,-2.5727224 2.248998,-2.5805074 2.248998,-0.01422 0,1.435898 -0.907644,1.443873 -0.907644,0.0047 0,-2.5630274 2.296145,-2.5630274 2.296145,0.0094 0,1.429745 -0.907667,1.429745 -0.907667,-0.011 0,-2.5614424 1.946214,-2.4057134 2.188065,-0.3961394 l 3.681109,-0.0028"
       id="path4550-3-6"
       inkscape:connector-curvature="0"
       sodipodi:nodetypes="ccsssssssscc" />
  </g>
</svg>
