<?xml version="1.0" encoding="UTF-8" standalone="no"?>
<svg
   viewBox="0 0 150 100"
   version="1.1"
   id="svg15"
   sodipodi:docname="tf_dirac_f.svg"
   inkscape:version="1.3.2 (091e20ef0f, 2023-11-25)"
   xmlns:inkscape="http://www.inkscape.org/namespaces/inkscape"
   xmlns:sodipodi="http://sodipodi.sourceforge.net/DTD/sodipodi-0.dtd"
   xmlns:xlink="http://www.w3.org/1999/xlink"
   xmlns="http://www.w3.org/2000/svg"
   xmlns:svg="http://www.w3.org/2000/svg">
  <defs
     id="defs15" />
  <sodipodi:namedview
     id="namedview15"
     pagecolor="#ffffff"
     bordercolor="#666666"
     borderopacity="1.0"
     inkscape:showpageshadow="2"
     inkscape:pageopacity="0.0"
     inkscape:pagecheckerboard="0"
     inkscape:deskcolor="#d1d1d1"
     inkscape:zoom="12.346694"
     inkscape:cx="75.040331"
     inkscape:cy="50.013388"
     inkscape:window-width="3836"
     inkscape:window-height="2097"
     inkscape:window-x="0"
     inkscape:window-y="31"
     inkscape:window-maximized="1"
     inkscape:current-layer="svg15"
     showgrid="false" />
  <title
     id="title1">Gnuplot</title>
  <desc
     id="desc1">Produced by GNUPLOT 5.4.10 patchlevel 9 (Gentoo revision r0) </desc>
  <g
     id="gnuplot_canvas">
    <rect
       x="0"
       y="0"
       width="150"
       height="100"
       fill="none"
       id="rect1" />
    <defs
       id="defs2">
      <circle
         id="gpDot"
         r="0.5"
         stroke-width="0.5"
         stroke="currentColor" />
      <path
         id="gpPt0"
         stroke-width="0.222"
         stroke="currentColor"
         d="M-1,0 h2 M0,-1 v2" />
      <path
         id="gpPt1"
         stroke-width="0.222"
         stroke="currentColor"
         d="M-1,-1 L1,1 M1,-1 L-1,1" />
      <path
         id="gpPt2"
         stroke-width="0.222"
         stroke="currentColor"
         d="M-1,0 L1,0 M0,-1 L0,1 M-1,-1 L1,1 M-1,1 L1,-1" />
      <rect
         id="gpPt3"
         stroke-width="0.222"
         stroke="currentColor"
         x="-1"
         y="-1"
         width="2"
         height="2" />
      <rect
         id="gpPt4"
         stroke-width="0.222"
         stroke="currentColor"
         fill="currentColor"
         x="-1"
         y="-1"
         width="2"
         height="2" />
      <circle
         id="gpPt5"
         stroke-width="0.222"
         stroke="currentColor"
         cx="0"
         cy="0"
         r="1" />
      <use
         xlink:href="#gpPt5"
         id="gpPt6"
         fill="currentColor"
         stroke="none" />
      <path
         id="gpPt7"
         stroke-width="0.222"
         stroke="currentColor"
         d="M0,-1.33 L-1.33,0.67 L1.33,0.67 z" />
      <use
         xlink:href="#gpPt7"
         id="gpPt8"
         fill="currentColor"
         stroke="none" />
      <use
         xlink:href="#gpPt7"
         id="gpPt9"
         stroke="currentColor"
         transform="rotate(180)" />
      <use
         xlink:href="#gpPt9"
         id="gpPt10"
         fill="currentColor"
         stroke="none" />
      <use
         xlink:href="#gpPt3"
         id="gpPt11"
         stroke="currentColor"
         transform="rotate(45)" />
      <use
         xlink:href="#gpPt11"
         id="gpPt12"
         fill="currentColor"
         stroke="none" />
      <path
         id="gpPt13"
         stroke-width="0.222"
         stroke="currentColor"
         d="M0,1.330 L1.265,0.411 L0.782,-1.067 L-0.782,-1.076 L-1.265,0.411 z" />
      <use
         xlink:href="#gpPt13"
         id="gpPt14"
         fill="currentColor"
         stroke="none" />
      <filter
         id="textbox"
         filterUnits="objectBoundingBox"
         x="0"
         y="0"
         height="1"
         width="1">
        <feFlood
           flood-color="white"
           flood-opacity="1"
           result="bgnd"
           id="feFlood1" />
        <feComposite
           in="SourceGraphic"
           in2="bgnd"
           operator="atop"
           id="feComposite1" />
      </filter>
      <filter
         id="greybox"
         filterUnits="objectBoundingBox"
         x="0"
         y="0"
         height="1"
         width="1">
        <feFlood
           flood-color="lightgrey"
           flood-opacity="1"
           result="grey"
           id="feFlood2" />
        <feComposite
           in="SourceGraphic"
           in2="grey"
           operator="atop"
           id="feComposite2" />
      </filter>
    </defs>
    <g
       fill="none"
       color="white"
       stroke="currentColor"
       stroke-width="1.00"
       stroke-linecap="butt"
       stroke-linejoin="miter"
       id="g2" />
    <g
       fill="none"
       color="black"
       stroke="currentColor"
       stroke-width="1.00"
       stroke-linecap="butt"
       stroke-linejoin="miter"
       id="g4">
      <path
         stroke="black"
         d="M75.00,31.78 L66.00,31.78  "
         id="path2" />
      <g
         transform="translate(70.80,44.68)"
         stroke="none"
         fill="black"
         font-family="Arial"
         font-size="12.00"
         text-anchor="end"
         id="g3">
        <text
           id="text2"><tspan
             font-family="Arial"
             id="tspan2">1</tspan></text>
      </g>
    </g>
    <g
       fill="none"
       color="black"
       stroke="currentColor"
       stroke-width="1.00"
       stroke-linecap="butt"
       stroke-linejoin="miter"
       id="g6">
      <path
         stroke="black"
         d="M75.00,77.33 L75.00,86.33  "
         id="path4" />
      <g
         transform="translate(66.61,90.23)"
         stroke="none"
         fill="black"
         font-family="Arial"
         font-size="12.00"
         text-anchor="middle"
         id="g5">
        <text
           id="text4"><tspan
             font-family="Arial"
             id="tspan4">0</tspan></text>
      </g>
    </g>
    <g
       fill="none"
       color="black"
       stroke="currentColor"
       stroke-width="1.00"
       stroke-linecap="butt"
       stroke-linejoin="miter"
       id="g7" />
    <g
       fill="none"
       color="black"
       stroke="currentColor"
       stroke-width="1.00"
       stroke-linecap="butt"
       stroke-linejoin="miter"
       id="g8">
      <path
         stroke="black"
         d="M8.39,77.33 L141.60,77.33  "
         id="path7" />
    </g>
    <g
       fill="none"
       color="black"
       stroke="currentColor"
       stroke-width="1.00"
       stroke-linecap="butt"
       stroke-linejoin="miter"
       id="g9">
      <path
         stroke="black"
         d="M75.00,91.00 L75.00,9.01  "
         id="path8" />
    </g>
    <g
       fill="none"
       color="black"
       stroke="currentColor"
       stroke-width="1.00"
       stroke-linecap="butt"
       stroke-linejoin="miter"
       id="g10" />
    <g
       id="gnuplot_plot_1"
       fill="none"
       style="fill:#ff0000;stroke:#ff0000">
      <title
         id="title10">gnuplot_plot_1</title>
      <g
         fill="none"
         color="white"
         stroke="black"
         stroke-width="2.00"
         stroke-linecap="butt"
         stroke-linejoin="miter"
         id="g11"
         style="fill:#ff0000;stroke:#ff0000" />
      <g
         fill="none"
         color="black"
         stroke="currentColor"
         stroke-width="2.00"
         stroke-linecap="butt"
         stroke-linejoin="miter"
         id="g12"
         style="fill:#ff0000;stroke:#ff0000">
        <path
           stroke="rgb(  0, 158, 115)"
           d="M8.39,31.78 L8.52,31.78 L8.66,31.78 L8.79,31.78 L8.92,31.78 L9.06,31.78 L9.19,31.78 L9.32,31.78   L9.46,31.78 L9.59,31.78 L9.72,31.78 L9.86,31.78 L9.99,31.78 L10.12,31.78 L10.26,31.78 L10.39,31.78   L10.52,31.78 L10.66,31.78 L10.79,31.78 L10.92,31.78 L11.06,31.78 L11.19,31.78 L11.32,31.78 L11.46,31.78   L11.59,31.78 L11.72,31.78 L11.86,31.78 L11.99,31.78 L12.12,31.78 L12.26,31.78 L12.39,31.78 L12.52,31.78   L12.66,31.78 L12.79,31.78 L12.92,31.78 L13.06,31.78 L13.19,31.78 L13.32,31.78 L13.46,31.78 L13.59,31.78   L13.72,31.78 L13.86,31.78 L13.99,31.78 L14.12,31.78 L14.26,31.78 L14.39,31.78 L14.52,31.78 L14.66,31.78   L14.79,31.78 L14.92,31.78 L15.06,31.78 L15.19,31.78 L15.32,31.78 L15.46,31.78 L15.59,31.78 L15.72,31.78   L15.86,31.78 L15.99,31.78 L16.12,31.78 L16.26,31.78 L16.39,31.78 L16.52,31.78 L16.66,31.78 L16.79,31.78   L16.92,31.78 L17.06,31.78 L17.19,31.78 L17.32,31.78 L17.46,31.78 L17.59,31.78 L17.72,31.78 L17.86,31.78   L17.99,31.78 L18.12,31.78 L18.26,31.78 L18.39,31.78 L18.52,31.78 L18.66,31.78 L18.79,31.78 L18.92,31.78   L19.06,31.78 L19.19,31.78 L19.32,31.78 L19.46,31.78 L19.59,31.78 L19.72,31.78 L19.86,31.78 L19.99,31.78   L20.12,31.78 L20.26,31.78 L20.39,31.78 L20.52,31.78 L20.66,31.78 L20.79,31.78 L20.92,31.78 L21.06,31.78   L21.19,31.78 L21.32,31.78 L21.46,31.78 L21.59,31.78 L21.72,31.78 L21.86,31.78 L21.99,31.78 L22.12,31.78   L22.26,31.78 L22.39,31.78 L22.52,31.78 L22.66,31.78 L22.79,31.78 L22.92,31.78 L23.06,31.78 L23.19,31.78   L23.32,31.78 L23.46,31.78 L23.59,31.78 L23.72,31.78 L23.86,31.78 L23.99,31.78 L24.12,31.78 L24.26,31.78   L24.39,31.78 L24.52,31.78 L24.66,31.78 L24.79,31.78 L24.92,31.78 L25.06,31.78 L25.19,31.78 L25.32,31.78   L25.46,31.78 L25.59,31.78 L25.72,31.78 L25.86,31.78 L25.99,31.78 L26.12,31.78 L26.26,31.78 L26.39,31.78   L26.52,31.78 L26.66,31.78 L26.79,31.78 L26.92,31.78 L27.06,31.78 L27.19,31.78 L27.32,31.78 L27.46,31.78   L27.59,31.78 L27.72,31.78 L27.86,31.78 L27.99,31.78 L28.12,31.78 L28.26,31.78 L28.39,31.78 L28.52,31.78   L28.66,31.78 L28.79,31.78 L28.92,31.78 L29.06,31.78 L29.19,31.78 L29.32,31.78 L29.46,31.78 L29.59,31.78   L29.72,31.78 L29.86,31.78 L29.99,31.78 L30.12,31.78 L30.26,31.78 L30.39,31.78 L30.52,31.78 L30.66,31.78   L30.79,31.78 L30.93,31.78 L31.06,31.78 L31.19,31.78 L31.33,31.78 L31.46,31.78 L31.59,31.78 L31.73,31.78   L31.86,31.78 L31.99,31.78 L32.13,31.78 L32.26,31.78 L32.39,31.78 L32.53,31.78 L32.66,31.78 L32.79,31.78   L32.93,31.78 L33.06,31.78 L33.19,31.78 L33.33,31.78 L33.46,31.78 L33.59,31.78 L33.73,31.78 L33.86,31.78   L33.99,31.78 L34.13,31.78 L34.26,31.78 L34.39,31.78 L34.53,31.78 L34.66,31.78 L34.79,31.78 L34.93,31.78   L35.06,31.78 L35.19,31.78 L35.33,31.78 L35.46,31.78 L35.59,31.78 L35.73,31.78 L35.86,31.78 L35.99,31.78   L36.13,31.78 L36.26,31.78 L36.39,31.78 L36.53,31.78 L36.66,31.78 L36.79,31.78 L36.93,31.78 L37.06,31.78   L37.19,31.78 L37.33,31.78 L37.46,31.78 L37.59,31.78 L37.73,31.78 L37.86,31.78 L37.99,31.78 L38.13,31.78   L38.26,31.78 L38.39,31.78 L38.53,31.78 L38.66,31.78 L38.79,31.78 L38.93,31.78 L39.06,31.78 L39.19,31.78   L39.33,31.78 L39.46,31.78 L39.59,31.78 L39.73,31.78 L39.86,31.78 L39.99,31.78 L40.13,31.78 L40.26,31.78   L40.39,31.78 L40.53,31.78 L40.66,31.78 L40.79,31.78 L40.93,31.78 L41.06,31.78 L41.19,31.78 L41.33,31.78   L41.46,31.78 L41.59,31.78 L41.73,31.78 L41.86,31.78 L41.99,31.78 L42.13,31.78 L42.26,31.78 L42.39,31.78   L42.53,31.78 L42.66,31.78 L42.79,31.78 L42.93,31.78 L43.06,31.78 L43.19,31.78 L43.33,31.78 L43.46,31.78   L43.59,31.78 L43.73,31.78 L43.86,31.78 L43.99,31.78 L44.13,31.78 L44.26,31.78 L44.39,31.78 L44.53,31.78   L44.66,31.78 L44.79,31.78 L44.93,31.78 L45.06,31.78 L45.19,31.78 L45.33,31.78 L45.46,31.78 L45.59,31.78   L45.73,31.78 L45.86,31.78 L45.99,31.78 L46.13,31.78 L46.26,31.78 L46.39,31.78 L46.53,31.78 L46.66,31.78   L46.79,31.78 L46.93,31.78 L47.06,31.78 L47.19,31.78 L47.33,31.78 L47.46,31.78 L47.59,31.78 L47.73,31.78   L47.86,31.78 L47.99,31.78 L48.13,31.78 L48.26,31.78 L48.39,31.78 L48.53,31.78 L48.66,31.78 L48.79,31.78   L48.93,31.78 L49.06,31.78 L49.19,31.78 L49.33,31.78 L49.46,31.78 L49.59,31.78 L49.73,31.78 L49.86,31.78   L49.99,31.78 L50.13,31.78 L50.26,31.78 L50.39,31.78 L50.53,31.78 L50.66,31.78 L50.79,31.78 L50.93,31.78   L51.06,31.78 L51.19,31.78 L51.33,31.78 L51.46,31.78 L51.59,31.78 L51.73,31.78 L51.86,31.78 L51.99,31.78   L52.13,31.78 L52.26,31.78 L52.39,31.78 L52.53,31.78 L52.66,31.78 L52.79,31.78 L52.93,31.78 L53.06,31.78   L53.19,31.78 L53.33,31.78 L53.46,31.78 L53.59,31.78 L53.73,31.78 L53.86,31.78 L53.99,31.78 L54.13,31.78   L54.26,31.78 L54.39,31.78 L54.53,31.78 L54.66,31.78 L54.79,31.78 L54.93,31.78 L55.06,31.78 L55.19,31.78   L55.33,31.78 L55.46,31.78 L55.59,31.78 L55.73,31.78 L55.86,31.78 L55.99,31.78 L56.13,31.78 L56.26,31.78   L56.39,31.78 L56.53,31.78 L56.66,31.78 L56.79,31.78 L56.93,31.78 L57.06,31.78 L57.19,31.78 L57.33,31.78   L57.46,31.78 L57.59,31.78 L57.73,31.78 L57.86,31.78 L57.99,31.78 L58.13,31.78 L58.26,31.78 L58.39,31.78   L58.53,31.78 L58.66,31.78 L58.79,31.78 L58.93,31.78 L59.06,31.78 L59.19,31.78 L59.33,31.78 L59.46,31.78   L59.59,31.78 L59.73,31.78 L59.86,31.78 L59.99,31.78 L60.13,31.78 L60.26,31.78 L60.39,31.78 L60.53,31.78   L60.66,31.78 L60.79,31.78 L60.93,31.78 L61.06,31.78 L61.19,31.78 L61.33,31.78 L61.46,31.78 L61.59,31.78   L61.73,31.78 L61.86,31.78 L61.99,31.78 L62.13,31.78 L62.26,31.78 L62.39,31.78 L62.53,31.78 L62.66,31.78   L62.79,31.78 L62.93,31.78 L63.06,31.78 L63.19,31.78 L63.33,31.78 L63.46,31.78 L63.59,31.78 L63.73,31.78   L63.86,31.78 L63.99,31.78 L64.13,31.78 L64.26,31.78 L64.39,31.78 L64.53,31.78 L64.66,31.78 L64.79,31.78   L64.93,31.78 L65.06,31.78 L65.19,31.78 L65.33,31.78 L65.46,31.78 L65.59,31.78 L65.73,31.78 L65.86,31.78   L65.99,31.78 L66.13,31.78 L66.26,31.78 L66.39,31.78 L66.53,31.78 L66.66,31.78 L66.79,31.78 L66.93,31.78   L67.06,31.78 L67.19,31.78 L67.33,31.78 L67.46,31.78 L67.59,31.78 L67.73,31.78 L67.86,31.78 L67.99,31.78   L68.13,31.78 L68.26,31.78 L68.39,31.78 L68.53,31.78 L68.66,31.78 L68.79,31.78 L68.93,31.78 L69.06,31.78   L69.19,31.78 L69.33,31.78 L69.46,31.78 L69.59,31.78 L69.73,31.78 L69.86,31.78 L69.99,31.78 L70.13,31.78   L70.26,31.78 L70.39,31.78 L70.53,31.78 L70.66,31.78 L70.79,31.78 L70.93,31.78 L71.06,31.78 L71.19,31.78   L71.33,31.78 L71.46,31.78 L71.59,31.78 L71.73,31.78 L71.86,31.78 L71.99,31.78 L72.13,31.78 L72.26,31.78   L72.39,31.78 L72.53,31.78 L72.66,31.78 L72.79,31.78 L72.93,31.78 L73.06,31.78 L73.19,31.78 L73.33,31.78   L73.46,31.78 L73.59,31.78 L73.73,31.78 L73.86,31.78 L73.99,31.78 L74.13,31.78 L74.26,31.78 L74.39,31.78   L74.53,31.78 L74.66,31.78 L74.79,31.78 L74.93,31.78 L75.06,31.78 L75.20,31.78 L75.33,31.78 L75.46,31.78   L75.60,31.78 L75.73,31.78 L75.86,31.78 L76.00,31.78 L76.13,31.78 L76.26,31.78 L76.40,31.78 L76.53,31.78   L76.66,31.78 L76.80,31.78 L76.93,31.78 L77.06,31.78 L77.20,31.78 L77.33,31.78 L77.46,31.78 L77.60,31.78   L77.73,31.78 L77.86,31.78 L78.00,31.78 L78.13,31.78 L78.26,31.78 L78.40,31.78 L78.53,31.78 L78.66,31.78   L78.80,31.78 L78.93,31.78 L79.06,31.78 L79.20,31.78 L79.33,31.78 L79.46,31.78 L79.60,31.78 L79.73,31.78   L79.86,31.78 L80.00,31.78 L80.13,31.78 L80.26,31.78 L80.40,31.78 L80.53,31.78 L80.66,31.78 L80.80,31.78   L80.93,31.78 L81.06,31.78 L81.20,31.78 L81.33,31.78 L81.46,31.78 L81.60,31.78 L81.73,31.78 L81.86,31.78   L82.00,31.78 L82.13,31.78 L82.26,31.78 L82.40,31.78 L82.53,31.78 L82.66,31.78 L82.80,31.78 L82.93,31.78   L83.06,31.78 L83.20,31.78 L83.33,31.78 L83.46,31.78 L83.60,31.78 L83.73,31.78 L83.86,31.78 L84.00,31.78   L84.13,31.78 L84.26,31.78 L84.40,31.78 L84.53,31.78 L84.66,31.78 L84.80,31.78 L84.93,31.78 L85.06,31.78   L85.20,31.78 L85.33,31.78 L85.46,31.78 L85.60,31.78 L85.73,31.78 L85.86,31.78 L86.00,31.78 L86.13,31.78   L86.26,31.78 L86.40,31.78 L86.53,31.78 L86.66,31.78 L86.80,31.78 L86.93,31.78 L87.06,31.78 L87.20,31.78   L87.33,31.78 L87.46,31.78 L87.60,31.78 L87.73,31.78 L87.86,31.78 L88.00,31.78 L88.13,31.78 L88.26,31.78   L88.40,31.78 L88.53,31.78 L88.66,31.78 L88.80,31.78 L88.93,31.78 L89.06,31.78 L89.20,31.78 L89.33,31.78   L89.46,31.78 L89.60,31.78 L89.73,31.78 L89.86,31.78 L90.00,31.78 L90.13,31.78 L90.26,31.78 L90.40,31.78   L90.53,31.78 L90.66,31.78 L90.80,31.78 L90.93,31.78 L91.06,31.78 L91.20,31.78 L91.33,31.78 L91.46,31.78   L91.60,31.78 L91.73,31.78 L91.86,31.78 L92.00,31.78 L92.13,31.78 L92.26,31.78 L92.40,31.78 L92.53,31.78   L92.66,31.78 L92.80,31.78 L92.93,31.78 L93.06,31.78 L93.20,31.78 L93.33,31.78 L93.46,31.78 L93.60,31.78   L93.73,31.78 L93.86,31.78 L94.00,31.78 L94.13,31.78 L94.26,31.78 L94.40,31.78 L94.53,31.78 L94.66,31.78   L94.80,31.78 L94.93,31.78 L95.06,31.78 L95.20,31.78 L95.33,31.78 L95.46,31.78 L95.60,31.78 L95.73,31.78   L95.86,31.78 L96.00,31.78 L96.13,31.78 L96.26,31.78 L96.40,31.78 L96.53,31.78 L96.66,31.78 L96.80,31.78   L96.93,31.78 L97.06,31.78 L97.20,31.78 L97.33,31.78 L97.46,31.78 L97.60,31.78 L97.73,31.78 L97.86,31.78   L98.00,31.78 L98.13,31.78 L98.26,31.78 L98.40,31.78 L98.53,31.78 L98.66,31.78 L98.80,31.78 L98.93,31.78   L99.06,31.78 L99.20,31.78 L99.33,31.78 L99.46,31.78 L99.60,31.78 L99.73,31.78 L99.86,31.78 L100.00,31.78   L100.13,31.78 L100.26,31.78 L100.40,31.78 L100.53,31.78 L100.66,31.78 L100.80,31.78 L100.93,31.78 L101.06,31.78   L101.20,31.78 L101.33,31.78 L101.46,31.78 L101.60,31.78 L101.73,31.78 L101.86,31.78 L102.00,31.78 L102.13,31.78   L102.26,31.78 L102.40,31.78 L102.53,31.78 L102.66,31.78 L102.80,31.78 L102.93,31.78 L103.06,31.78 L103.20,31.78   L103.33,31.78 L103.46,31.78 L103.60,31.78 L103.73,31.78 L103.86,31.78 L104.00,31.78 L104.13,31.78 L104.26,31.78   L104.40,31.78 L104.53,31.78 L104.66,31.78 L104.80,31.78 L104.93,31.78 L105.06,31.78 L105.20,31.78 L105.33,31.78   L105.46,31.78 L105.60,31.78 L105.73,31.78 L105.86,31.78 L106.00,31.78 L106.13,31.78 L106.26,31.78 L106.40,31.78   L106.53,31.78 L106.66,31.78 L106.80,31.78 L106.93,31.78 L107.06,31.78 L107.20,31.78 L107.33,31.78 L107.46,31.78   L107.60,31.78 L107.73,31.78 L107.86,31.78 L108.00,31.78 L108.13,31.78 L108.26,31.78 L108.40,31.78 L108.53,31.78   L108.66,31.78 L108.80,31.78 L108.93,31.78 L109.06,31.78 L109.20,31.78 L109.33,31.78 L109.46,31.78 L109.60,31.78   L109.73,31.78 L109.86,31.78 L110.00,31.78 L110.13,31.78 L110.26,31.78 L110.40,31.78 L110.53,31.78 L110.66,31.78   L110.80,31.78 L110.93,31.78 L111.06,31.78 L111.20,31.78 L111.33,31.78 L111.46,31.78 L111.60,31.78 L111.73,31.78   L111.86,31.78 L112.00,31.78 L112.13,31.78 L112.26,31.78 L112.40,31.78 L112.53,31.78 L112.66,31.78 L112.80,31.78   L112.93,31.78 L113.06,31.78 L113.20,31.78 L113.33,31.78 L113.46,31.78 L113.60,31.78 L113.73,31.78 L113.86,31.78   L114.00,31.78 L114.13,31.78 L114.26,31.78 L114.40,31.78 L114.53,31.78 L114.66,31.78 L114.80,31.78 L114.93,31.78   L115.06,31.78 L115.20,31.78 L115.33,31.78 L115.46,31.78 L115.60,31.78 L115.73,31.78 L115.86,31.78 L116.00,31.78   L116.13,31.78 L116.26,31.78 L116.40,31.78 L116.53,31.78 L116.66,31.78 L116.80,31.78 L116.93,31.78 L117.06,31.78   L117.20,31.78 L117.33,31.78 L117.46,31.78 L117.60,31.78 L117.73,31.78 L117.86,31.78 L118.00,31.78 L118.13,31.78   L118.26,31.78 L118.40,31.78 L118.53,31.78 L118.66,31.78 L118.80,31.78 L118.93,31.78 L119.06,31.78 L119.20,31.78   L119.33,31.78 L119.47,31.78 L119.60,31.78 L119.73,31.78 L119.87,31.78 L120.00,31.78 L120.13,31.78 L120.27,31.78   L120.40,31.78 L120.53,31.78 L120.67,31.78 L120.80,31.78 L120.93,31.78 L121.07,31.78 L121.20,31.78 L121.33,31.78   L121.47,31.78 L121.60,31.78 L121.73,31.78 L121.87,31.78 L122.00,31.78 L122.13,31.78 L122.27,31.78 L122.40,31.78   L122.53,31.78 L122.67,31.78 L122.80,31.78 L122.93,31.78 L123.07,31.78 L123.20,31.78 L123.33,31.78 L123.47,31.78   L123.60,31.78 L123.73,31.78 L123.87,31.78 L124.00,31.78 L124.13,31.78 L124.27,31.78 L124.40,31.78 L124.53,31.78   L124.67,31.78 L124.80,31.78 L124.93,31.78 L125.07,31.78 L125.20,31.78 L125.33,31.78 L125.47,31.78 L125.60,31.78   L125.73,31.78 L125.87,31.78 L126.00,31.78 L126.13,31.78 L126.27,31.78 L126.40,31.78 L126.53,31.78 L126.67,31.78   L126.80,31.78 L126.93,31.78 L127.07,31.78 L127.20,31.78 L127.33,31.78 L127.47,31.78 L127.60,31.78 L127.73,31.78   L127.87,31.78 L128.00,31.78 L128.13,31.78 L128.27,31.78 L128.40,31.78 L128.53,31.78 L128.67,31.78 L128.80,31.78   L128.93,31.78 L129.07,31.78 L129.20,31.78 L129.33,31.78 L129.47,31.78 L129.60,31.78 L129.73,31.78 L129.87,31.78   L130.00,31.78 L130.13,31.78 L130.27,31.78 L130.40,31.78 L130.53,31.78 L130.67,31.78 L130.80,31.78 L130.93,31.78   L131.07,31.78 L131.20,31.78 L131.33,31.78 L131.47,31.78 L131.60,31.78 L131.73,31.78 L131.87,31.78 L132.00,31.78   L132.13,31.78 L132.27,31.78 L132.40,31.78 L132.53,31.78 L132.67,31.78 L132.80,31.78 L132.93,31.78 L133.07,31.78   L133.20,31.78 L133.33,31.78 L133.47,31.78 L133.60,31.78 L133.73,31.78 L133.87,31.78 L134.00,31.78 L134.13,31.78   L134.27,31.78 L134.40,31.78 L134.53,31.78 L134.67,31.78 L134.80,31.78 L134.93,31.78 L135.07,31.78 L135.20,31.78   L135.33,31.78 L135.47,31.78 L135.60,31.78 L135.73,31.78 L135.87,31.78 L136.00,31.78 L136.13,31.78 L136.27,31.78   L136.40,31.78 L136.53,31.78 L136.67,31.78 L136.80,31.78 L136.93,31.78 L137.07,31.78 L137.20,31.78 L137.33,31.78   L137.47,31.78 L137.60,31.78 L137.73,31.78 L137.87,31.78 L138.00,31.78 L138.13,31.78 L138.27,31.78 L138.40,31.78   L138.53,31.78 L138.67,31.78 L138.80,31.78 L138.93,31.78 L139.07,31.78 L139.20,31.78 L139.33,31.78 L139.47,31.78   L139.60,31.78 L139.73,31.78 L139.87,31.78 L140.00,31.78 L140.13,31.78 L140.27,31.78 L140.40,31.78 L140.53,31.78   L140.67,31.78 L140.80,31.78 L140.93,31.78 L141.07,31.78 L141.20,31.78 L141.33,31.78 L141.47,31.78 L141.60,31.78    "
           id="path11"
           style="fill:#ff0000;stroke:#ff0000" />
      </g>
    </g>
    <g
       fill="none"
       color="black"
       stroke="currentColor"
       stroke-width="2.00"
       stroke-linecap="butt"
       stroke-linejoin="miter"
       id="g13" />
    <g
       fill="none"
       color="black"
       stroke="black"
       stroke-width="1.00"
       stroke-linecap="butt"
       stroke-linejoin="miter"
       id="g14" />
    <g
       fill="none"
       color="black"
       stroke="currentColor"
       stroke-width="1.00"
       stroke-linecap="butt"
       stroke-linejoin="miter"
       id="g15" />
  </g>
  <rect
     style="fill:#c8c4b7;fill-opacity:0.22016;stroke:#1a1a1a;stroke-width:2"
     id="rect15"
     width="146.57854"
     height="96.275169"
     x="1.9184754"
     y="1.8825934"
     rx="6.9753823"
     ry="6.9753823" />
</svg>
