<?xml version="1.0" encoding="UTF-8" standalone="no"?>
<svg
   viewBox="0 0 150 100"
   version="1.1"
   id="svg15"
   sodipodi:docname="tf_cosinus_t.svg"
   inkscape:version="1.3.2 (091e20ef0f, 2023-11-25)"
   xmlns:inkscape="http://www.inkscape.org/namespaces/inkscape"
   xmlns:sodipodi="http://sodipodi.sourceforge.net/DTD/sodipodi-0.dtd"
   xmlns:xlink="http://www.w3.org/1999/xlink"
   xmlns="http://www.w3.org/2000/svg"
   xmlns:svg="http://www.w3.org/2000/svg">
  <defs
     id="defs15" />
  <sodipodi:namedview
     id="namedview15"
     pagecolor="#ffffff"
     bordercolor="#666666"
     borderopacity="1.0"
     inkscape:showpageshadow="2"
     inkscape:pageopacity="0.0"
     inkscape:pagecheckerboard="0"
     inkscape:deskcolor="#d1d1d1"
     showgrid="false"
     inkscape:zoom="18.63"
     inkscape:cx="67.98175"
     inkscape:cy="12.855609"
     inkscape:window-width="1916"
     inkscape:window-height="1034"
     inkscape:window-x="1920"
     inkscape:window-y="24"
     inkscape:window-maximized="1"
     inkscape:current-layer="g4" />
  <title
     id="title1">Gnuplot</title>
  <desc
     id="desc1">Produced by GNUPLOT 5.4.10 patchlevel 9 (Gentoo revision r0) </desc>
  <g
     id="gnuplot_canvas">
    <rect
       style="fill:#c8c4b7;fill-opacity:0.22016;stroke:#1a1a1a;stroke-width:2"
       id="rect15"
       width="146.57854"
       height="96.275169"
       x="1.7107315"
       y="1.8624153"
       rx="6.9753823"
       ry="6.9753823" />
    <rect
       x="0"
       y="0"
       width="150"
       height="100"
       fill="none"
       id="rect1" />
    <defs
       id="defs2">
      <circle
         id="gpDot"
         r="0.5"
         stroke-width="0.5"
         stroke="currentColor" />
      <path
         id="gpPt0"
         stroke-width="0.222"
         stroke="currentColor"
         d="M-1,0 h2 M0,-1 v2" />
      <path
         id="gpPt1"
         stroke-width="0.222"
         stroke="currentColor"
         d="M-1,-1 L1,1 M1,-1 L-1,1" />
      <path
         id="gpPt2"
         stroke-width="0.222"
         stroke="currentColor"
         d="M-1,0 L1,0 M0,-1 L0,1 M-1,-1 L1,1 M-1,1 L1,-1" />
      <rect
         id="gpPt3"
         stroke-width="0.222"
         stroke="currentColor"
         x="-1"
         y="-1"
         width="2"
         height="2" />
      <rect
         id="gpPt4"
         stroke-width="0.222"
         stroke="currentColor"
         fill="currentColor"
         x="-1"
         y="-1"
         width="2"
         height="2" />
      <circle
         id="gpPt5"
         stroke-width="0.222"
         stroke="currentColor"
         cx="0"
         cy="0"
         r="1" />
      <use
         xlink:href="#gpPt5"
         id="gpPt6"
         fill="currentColor"
         stroke="none" />
      <path
         id="gpPt7"
         stroke-width="0.222"
         stroke="currentColor"
         d="M0,-1.33 L-1.33,0.67 L1.33,0.67 z" />
      <use
         xlink:href="#gpPt7"
         id="gpPt8"
         fill="currentColor"
         stroke="none" />
      <use
         xlink:href="#gpPt7"
         id="gpPt9"
         stroke="currentColor"
         transform="rotate(180)" />
      <use
         xlink:href="#gpPt9"
         id="gpPt10"
         fill="currentColor"
         stroke="none" />
      <use
         xlink:href="#gpPt3"
         id="gpPt11"
         stroke="currentColor"
         transform="rotate(45)" />
      <use
         xlink:href="#gpPt11"
         id="gpPt12"
         fill="currentColor"
         stroke="none" />
      <path
         id="gpPt13"
         stroke-width="0.222"
         stroke="currentColor"
         d="M0,1.330 L1.265,0.411 L0.782,-1.067 L-0.782,-1.076 L-1.265,0.411 z" />
      <use
         xlink:href="#gpPt13"
         id="gpPt14"
         fill="currentColor"
         stroke="none" />
      <filter
         id="textbox"
         filterUnits="objectBoundingBox"
         x="0"
         y="0"
         height="1"
         width="1">
        <feFlood
           flood-color="white"
           flood-opacity="1"
           result="bgnd"
           id="feFlood1" />
        <feComposite
           in="SourceGraphic"
           in2="bgnd"
           operator="atop"
           id="feComposite1" />
      </filter>
      <filter
         id="greybox"
         filterUnits="objectBoundingBox"
         x="0"
         y="0"
         height="1"
         width="1">
        <feFlood
           flood-color="lightgrey"
           flood-opacity="1"
           result="grey"
           id="feFlood2" />
        <feComposite
           in="SourceGraphic"
           in2="grey"
           operator="atop"
           id="feComposite2" />
      </filter>
    </defs>
    <g
       fill="none"
       color="white"
       stroke="currentColor"
       stroke-width="1.00"
       stroke-linecap="butt"
       stroke-linejoin="miter"
       id="g2" />
    <g
       fill="none"
       color="black"
       stroke="currentColor"
       stroke-width="1.00"
       stroke-linecap="butt"
       stroke-linejoin="miter"
       id="g4">
      <path
         stroke="black"
         d="M75.00,9.01 L66.00,9.01  "
         id="path2" />
      <g
         transform="translate(58.22,14.91)"
         stroke="none"
         fill="#000000"
         font-family="Arial"
         font-size="12px"
         text-anchor="end"
         id="g3">
        <text
           id="text2"><tspan
             font-family="Arial"
             id="tspan2">1</tspan></text>
      </g>
    </g>
    <g
       fill="none"
       color="black"
       stroke="currentColor"
       stroke-width="1.00"
       stroke-linecap="butt"
       stroke-linejoin="miter"
       id="g6">
      <path
         stroke="black"
         d="M75.00,50.00 L75.00,59.00  "
         id="path4" />
      <g
         transform="translate(66.61,62.90)"
         stroke="none"
         fill="black"
         font-family="Arial"
         font-size="12.00"
         text-anchor="middle"
         id="g5">
        <text
           id="text4"><tspan
             font-family="Arial"
             id="tspan4">0</tspan></text>
      </g>
    </g>
    <g
       fill="none"
       color="black"
       stroke="currentColor"
       stroke-width="1.00"
       stroke-linecap="butt"
       stroke-linejoin="miter"
       id="g7" />
    <g
       fill="none"
       color="black"
       stroke="currentColor"
       stroke-width="1.00"
       stroke-linecap="butt"
       stroke-linejoin="miter"
       id="g8">
      <path
         stroke="black"
         d="M8.39,50.00 L141.60,50.00  "
         id="path7" />
    </g>
    <g
       fill="none"
       color="black"
       stroke="currentColor"
       stroke-width="1.00"
       stroke-linecap="butt"
       stroke-linejoin="miter"
       id="g9">
      <path
         stroke="black"
         d="M75.00,91.00 L75.00,9.01  "
         id="path8" />
    </g>
    <g
       fill="none"
       color="black"
       stroke="currentColor"
       stroke-width="1.00"
       stroke-linecap="butt"
       stroke-linejoin="miter"
       id="g10" />
    <g
       id="gnuplot_plot_1"
       fill="none">
      <title
         id="title10">gnuplot_plot_1</title>
      <g
         fill="none"
         color="white"
         stroke="black"
         stroke-width="2.00"
         stroke-linecap="butt"
         stroke-linejoin="miter"
         id="g11" />
      <g
         fill="none"
         color="black"
         stroke="currentColor"
         stroke-width="2.00"
         stroke-linecap="butt"
         stroke-linejoin="miter"
         id="g12">
        <path
           stroke="rgb(  0, 158, 115)"
           d="M8.39,10.64 L8.52,10.78 L8.66,10.93 L8.79,11.08 L8.92,11.24 L9.06,11.40 L9.19,11.57 L9.32,11.74   L9.46,11.92 L9.59,12.11 L9.72,12.30 L9.86,12.50 L9.99,12.70 L10.12,12.90 L10.26,13.12 L10.39,13.33   L10.52,13.56 L10.66,13.78 L10.79,14.02 L10.92,14.26 L11.06,14.50 L11.19,14.75 L11.32,15.00 L11.46,15.26   L11.59,15.52 L11.72,15.79 L11.86,16.07 L11.99,16.35 L12.12,16.63 L12.26,16.92 L12.39,17.21 L12.52,17.51   L12.66,17.81 L12.79,18.12 L12.92,18.43 L13.06,18.75 L13.19,19.07 L13.32,19.39 L13.46,19.72 L13.59,20.06   L13.72,20.39 L13.86,20.74 L13.99,21.08 L14.12,21.43 L14.26,21.79 L14.39,22.15 L14.52,22.51 L14.66,22.88   L14.79,23.25 L14.92,23.63 L15.06,24.00 L15.19,24.39 L15.32,24.77 L15.46,25.16 L15.59,25.56 L15.72,25.95   L15.86,26.35 L15.99,26.76 L16.12,27.17 L16.26,27.58 L16.39,27.99 L16.52,28.41 L16.66,28.83 L16.79,29.25   L16.92,29.68 L17.06,30.11 L17.19,30.54 L17.32,30.97 L17.46,31.41 L17.59,31.85 L17.72,32.29 L17.86,32.74   L17.99,33.19 L18.12,33.64 L18.26,34.09 L18.39,34.54 L18.52,35.00 L18.66,35.46 L18.79,35.92 L18.92,36.39   L19.06,36.85 L19.19,37.32 L19.32,37.79 L19.46,38.26 L19.59,38.73 L19.72,39.21 L19.86,39.68 L19.99,40.16   L20.12,40.64 L20.26,41.12 L20.39,41.60 L20.52,42.08 L20.66,42.56 L20.79,43.05 L20.92,43.54 L21.06,44.02   L21.19,44.51 L21.32,45.00 L21.46,45.49 L21.59,45.98 L21.72,46.47 L21.86,46.96 L21.99,47.45 L22.12,47.94   L22.26,48.43 L22.39,48.92 L22.52,49.42 L22.66,49.91 L22.79,50.40 L22.92,50.89 L23.06,51.39 L23.19,51.88   L23.32,52.37 L23.46,52.86 L23.59,53.35 L23.72,53.84 L23.86,54.33 L23.99,54.82 L24.12,55.31 L24.26,55.80   L24.39,56.29 L24.52,56.77 L24.66,57.26 L24.79,57.74 L24.92,58.22 L25.06,58.71 L25.19,59.19 L25.32,59.67   L25.46,60.14 L25.59,60.62 L25.72,61.10 L25.86,61.57 L25.99,62.04 L26.12,62.51 L26.26,62.98 L26.39,63.44   L26.52,63.91 L26.66,64.37 L26.79,64.83 L26.92,65.29 L27.06,65.75 L27.19,66.20 L27.32,66.65 L27.46,67.10   L27.59,67.54 L27.72,67.99 L27.86,68.43 L27.99,68.87 L28.12,69.30 L28.26,69.74 L28.39,70.17 L28.52,70.59   L28.66,71.02 L28.79,71.44 L28.92,71.86 L29.06,72.27 L29.19,72.69 L29.32,73.09 L29.46,73.50 L29.59,73.90   L29.72,74.30 L29.86,74.69 L29.99,75.09 L30.12,75.47 L30.26,75.86 L30.39,76.24 L30.52,76.61 L30.66,76.99   L30.79,77.36 L30.93,77.72 L31.06,78.08 L31.19,78.44 L31.33,78.79 L31.46,79.14 L31.59,79.48 L31.73,79.82   L31.86,80.16 L31.99,80.49 L32.13,80.82 L32.26,81.14 L32.39,81.46 L32.53,81.77 L32.66,82.08 L32.79,82.39   L32.93,82.69 L33.06,82.98 L33.19,83.27 L33.33,83.56 L33.46,83.84 L33.59,84.11 L33.73,84.38 L33.86,84.65   L33.99,84.91 L34.13,85.16 L34.26,85.42 L34.39,85.66 L34.53,85.90 L34.66,86.14 L34.79,86.37 L34.93,86.59   L35.06,86.81 L35.19,87.03 L35.33,87.23 L35.46,87.44 L35.59,87.64 L35.73,87.83 L35.86,88.02 L35.99,88.20   L36.13,88.37 L36.26,88.54 L36.39,88.71 L36.53,88.87 L36.66,89.02 L36.79,89.17 L36.93,89.31 L37.06,89.45   L37.19,89.58 L37.33,89.71 L37.46,89.83 L37.59,89.94 L37.73,90.05 L37.86,90.15 L37.99,90.25 L38.13,90.34   L38.26,90.42 L38.39,90.50 L38.53,90.58 L38.66,90.65 L38.79,90.71 L38.93,90.76 L39.06,90.81 L39.19,90.86   L39.33,90.89 L39.46,90.93 L39.59,90.95 L39.73,90.97 L39.86,90.99 L39.99,91.00 L40.13,91.00 L40.26,91.00   L40.39,90.99 L40.53,90.97 L40.66,90.95 L40.79,90.92 L40.93,90.89 L41.06,90.85 L41.19,90.81 L41.33,90.76   L41.46,90.70 L41.59,90.64 L41.73,90.57 L41.86,90.50 L41.99,90.42 L42.13,90.33 L42.26,90.24 L42.39,90.14   L42.53,90.04 L42.66,89.93 L42.79,89.82 L42.93,89.70 L43.06,89.57 L43.19,89.44 L43.33,89.30 L43.46,89.16   L43.59,89.01 L43.73,88.86 L43.86,88.70 L43.99,88.53 L44.13,88.36 L44.26,88.18 L44.39,88.00 L44.53,87.81   L44.66,87.62 L44.79,87.42 L44.93,87.22 L45.06,87.01 L45.19,86.79 L45.33,86.57 L45.46,86.35 L45.59,86.12   L45.73,85.88 L45.86,85.64 L45.99,85.40 L46.13,85.15 L46.26,84.89 L46.39,84.63 L46.53,84.36 L46.66,84.09   L46.79,83.82 L46.93,83.53 L47.06,83.25 L47.19,82.96 L47.33,82.66 L47.46,82.36 L47.59,82.06 L47.73,81.75   L47.86,81.43 L47.99,81.12 L48.13,80.79 L48.26,80.47 L48.39,80.13 L48.53,79.80 L48.66,79.46 L48.79,79.11   L48.93,78.76 L49.06,78.41 L49.19,78.05 L49.33,77.69 L49.46,77.33 L49.59,76.96 L49.73,76.59 L49.86,76.21   L49.99,75.83 L50.13,75.44 L50.26,75.06 L50.39,74.66 L50.53,74.27 L50.66,73.87 L50.79,73.47 L50.93,73.06   L51.06,72.65 L51.19,72.24 L51.33,71.83 L51.46,71.41 L51.59,70.99 L51.73,70.56 L51.86,70.14 L51.99,69.70   L52.13,69.27 L52.26,68.84 L52.39,68.40 L52.53,67.96 L52.66,67.51 L52.79,67.06 L52.93,66.62 L53.06,66.16   L53.19,65.71 L53.33,65.25 L53.46,64.80 L53.59,64.34 L53.73,63.87 L53.86,63.41 L53.99,62.94 L54.13,62.48   L54.26,62.01 L54.39,61.53 L54.53,61.06 L54.66,60.59 L54.79,60.11 L54.93,59.63 L55.06,59.15 L55.19,58.67   L55.33,58.19 L55.46,57.71 L55.59,57.22 L55.73,56.74 L55.86,56.25 L55.99,55.76 L56.13,55.27 L56.26,54.79   L56.39,54.30 L56.53,53.81 L56.66,53.32 L56.79,52.83 L56.93,52.33 L57.06,51.84 L57.19,51.35 L57.33,50.86   L57.46,50.37 L57.59,49.87 L57.73,49.38 L57.86,48.89 L57.99,48.40 L58.13,47.90 L58.26,47.41 L58.39,46.92   L58.53,46.43 L58.66,45.94 L58.79,45.45 L58.93,44.96 L59.06,44.47 L59.19,43.99 L59.33,43.50 L59.46,43.01   L59.59,42.53 L59.73,42.04 L59.86,41.56 L59.99,41.08 L60.13,40.60 L60.26,40.12 L60.39,39.65 L60.53,39.17   L60.66,38.70 L60.79,38.22 L60.93,37.75 L61.06,37.28 L61.19,36.82 L61.33,36.35 L61.46,35.89 L61.59,35.43   L61.73,34.97 L61.86,34.51 L61.99,34.05 L62.13,33.60 L62.26,33.15 L62.39,32.70 L62.53,32.26 L62.66,31.82   L62.79,31.38 L62.93,30.94 L63.06,30.51 L63.19,30.07 L63.33,29.64 L63.46,29.22 L63.59,28.80 L63.73,28.38   L63.86,27.96 L63.99,27.55 L64.13,27.14 L64.26,26.73 L64.39,26.32 L64.53,25.92 L64.66,25.53 L64.79,25.13   L64.93,24.74 L65.06,24.36 L65.19,23.98 L65.33,23.60 L65.46,23.22 L65.59,22.85 L65.73,22.49 L65.86,22.12   L65.99,21.76 L66.13,21.41 L66.26,21.06 L66.39,20.71 L66.53,20.37 L66.66,20.03 L66.79,19.70 L66.93,19.37   L67.06,19.04 L67.19,18.72 L67.33,18.41 L67.46,18.09 L67.59,17.79 L67.73,17.49 L67.86,17.19 L67.99,16.90   L68.13,16.61 L68.26,16.32 L68.39,16.05 L68.53,15.77 L68.66,15.50 L68.79,15.24 L68.93,14.98 L69.06,14.73   L69.19,14.48 L69.33,14.24 L69.46,14.00 L69.59,13.77 L69.73,13.54 L69.86,13.32 L69.99,13.10 L70.13,12.89   L70.26,12.68 L70.39,12.48 L70.53,12.28 L70.66,12.09 L70.79,11.91 L70.93,11.73 L71.06,11.56 L71.19,11.39   L71.33,11.23 L71.46,11.07 L71.59,10.92 L71.73,10.77 L71.86,10.63 L71.99,10.50 L72.13,10.37 L72.26,10.25   L72.39,10.13 L72.53,10.02 L72.66,9.91 L72.79,9.81 L72.93,9.72 L73.06,9.63 L73.19,9.55 L73.33,9.47   L73.46,9.40 L73.59,9.34 L73.73,9.28 L73.86,9.22 L73.99,9.18 L74.13,9.13 L74.26,9.10 L74.39,9.07   L74.53,9.05 L74.66,9.03 L74.79,9.02 L74.93,9.01 L75.06,9.01 L75.20,9.02 L75.33,9.03 L75.46,9.05   L75.60,9.07 L75.73,9.10 L75.86,9.13 L76.00,9.18 L76.13,9.22 L76.26,9.28 L76.40,9.34 L76.53,9.40   L76.66,9.47 L76.80,9.55 L76.93,9.63 L77.06,9.72 L77.20,9.81 L77.33,9.91 L77.46,10.02 L77.60,10.13   L77.73,10.25 L77.86,10.37 L78.00,10.50 L78.13,10.63 L78.26,10.77 L78.40,10.92 L78.53,11.07 L78.66,11.23   L78.80,11.39 L78.93,11.56 L79.06,11.73 L79.20,11.91 L79.33,12.09 L79.46,12.28 L79.60,12.48 L79.73,12.68   L79.86,12.89 L80.00,13.10 L80.13,13.32 L80.26,13.54 L80.40,13.77 L80.53,14.00 L80.66,14.24 L80.80,14.48   L80.93,14.73 L81.06,14.98 L81.20,15.24 L81.33,15.50 L81.46,15.77 L81.60,16.05 L81.73,16.32 L81.86,16.61   L82.00,16.90 L82.13,17.19 L82.26,17.49 L82.40,17.79 L82.53,18.09 L82.66,18.41 L82.80,18.72 L82.93,19.04   L83.06,19.37 L83.20,19.70 L83.33,20.03 L83.46,20.37 L83.60,20.71 L83.73,21.06 L83.86,21.41 L84.00,21.76   L84.13,22.12 L84.26,22.49 L84.40,22.85 L84.53,23.22 L84.66,23.60 L84.80,23.98 L84.93,24.36 L85.06,24.74   L85.20,25.13 L85.33,25.53 L85.46,25.92 L85.60,26.32 L85.73,26.73 L85.86,27.14 L86.00,27.55 L86.13,27.96   L86.26,28.38 L86.40,28.80 L86.53,29.22 L86.66,29.64 L86.80,30.07 L86.93,30.51 L87.06,30.94 L87.20,31.38   L87.33,31.82 L87.46,32.26 L87.60,32.70 L87.73,33.15 L87.86,33.60 L88.00,34.05 L88.13,34.51 L88.26,34.97   L88.40,35.43 L88.53,35.89 L88.66,36.35 L88.80,36.82 L88.93,37.28 L89.06,37.75 L89.20,38.22 L89.33,38.70   L89.46,39.17 L89.60,39.65 L89.73,40.12 L89.86,40.60 L90.00,41.08 L90.13,41.56 L90.26,42.04 L90.40,42.53   L90.53,43.01 L90.66,43.50 L90.80,43.99 L90.93,44.47 L91.06,44.96 L91.20,45.45 L91.33,45.94 L91.46,46.43   L91.60,46.92 L91.73,47.41 L91.86,47.90 L92.00,48.40 L92.13,48.89 L92.26,49.38 L92.40,49.87 L92.53,50.37   L92.66,50.86 L92.80,51.35 L92.93,51.84 L93.06,52.33 L93.20,52.83 L93.33,53.32 L93.46,53.81 L93.60,54.30   L93.73,54.79 L93.86,55.27 L94.00,55.76 L94.13,56.25 L94.26,56.74 L94.40,57.22 L94.53,57.71 L94.66,58.19   L94.80,58.67 L94.93,59.15 L95.06,59.63 L95.20,60.11 L95.33,60.59 L95.46,61.06 L95.60,61.53 L95.73,62.01   L95.86,62.48 L96.00,62.94 L96.13,63.41 L96.26,63.87 L96.40,64.34 L96.53,64.80 L96.66,65.25 L96.80,65.71   L96.93,66.16 L97.06,66.62 L97.20,67.06 L97.33,67.51 L97.46,67.96 L97.60,68.40 L97.73,68.84 L97.86,69.27   L98.00,69.70 L98.13,70.14 L98.26,70.56 L98.40,70.99 L98.53,71.41 L98.66,71.83 L98.80,72.24 L98.93,72.65   L99.06,73.06 L99.20,73.47 L99.33,73.87 L99.46,74.27 L99.60,74.66 L99.73,75.06 L99.86,75.44 L100.00,75.83   L100.13,76.21 L100.26,76.59 L100.40,76.96 L100.53,77.33 L100.66,77.69 L100.80,78.05 L100.93,78.41 L101.06,78.76   L101.20,79.11 L101.33,79.46 L101.46,79.80 L101.60,80.13 L101.73,80.47 L101.86,80.79 L102.00,81.12 L102.13,81.43   L102.26,81.75 L102.40,82.06 L102.53,82.36 L102.66,82.66 L102.80,82.96 L102.93,83.25 L103.06,83.53 L103.20,83.82   L103.33,84.09 L103.46,84.36 L103.60,84.63 L103.73,84.89 L103.86,85.15 L104.00,85.40 L104.13,85.64 L104.26,85.88   L104.40,86.12 L104.53,86.35 L104.66,86.57 L104.80,86.79 L104.93,87.01 L105.06,87.22 L105.20,87.42 L105.33,87.62   L105.46,87.81 L105.60,88.00 L105.73,88.18 L105.86,88.36 L106.00,88.53 L106.13,88.70 L106.26,88.86 L106.40,89.01   L106.53,89.16 L106.66,89.30 L106.80,89.44 L106.93,89.57 L107.06,89.70 L107.20,89.82 L107.33,89.93 L107.46,90.04   L107.60,90.14 L107.73,90.24 L107.86,90.33 L108.00,90.42 L108.13,90.50 L108.26,90.57 L108.40,90.64 L108.53,90.70   L108.66,90.76 L108.80,90.81 L108.93,90.85 L109.06,90.89 L109.20,90.92 L109.33,90.95 L109.46,90.97 L109.60,90.99   L109.73,91.00 L109.86,91.00 L110.00,91.00 L110.13,90.99 L110.26,90.97 L110.40,90.95 L110.53,90.93 L110.66,90.89   L110.80,90.86 L110.93,90.81 L111.06,90.76 L111.20,90.71 L111.33,90.65 L111.46,90.58 L111.60,90.50 L111.73,90.42   L111.86,90.34 L112.00,90.25 L112.13,90.15 L112.26,90.05 L112.40,89.94 L112.53,89.83 L112.66,89.71 L112.80,89.58   L112.93,89.45 L113.06,89.31 L113.20,89.17 L113.33,89.02 L113.46,88.87 L113.60,88.71 L113.73,88.54 L113.86,88.37   L114.00,88.20 L114.13,88.02 L114.26,87.83 L114.40,87.64 L114.53,87.44 L114.66,87.23 L114.80,87.03 L114.93,86.81   L115.06,86.59 L115.20,86.37 L115.33,86.14 L115.46,85.90 L115.60,85.66 L115.73,85.42 L115.86,85.16 L116.00,84.91   L116.13,84.65 L116.26,84.38 L116.40,84.11 L116.53,83.84 L116.66,83.56 L116.80,83.27 L116.93,82.98 L117.06,82.69   L117.20,82.39 L117.33,82.08 L117.46,81.77 L117.60,81.46 L117.73,81.14 L117.86,80.82 L118.00,80.49 L118.13,80.16   L118.26,79.82 L118.40,79.48 L118.53,79.14 L118.66,78.79 L118.80,78.44 L118.93,78.08 L119.06,77.72 L119.20,77.36   L119.33,76.99 L119.47,76.61 L119.60,76.24 L119.73,75.86 L119.87,75.47 L120.00,75.09 L120.13,74.69 L120.27,74.30   L120.40,73.90 L120.53,73.50 L120.67,73.09 L120.80,72.69 L120.93,72.27 L121.07,71.86 L121.20,71.44 L121.33,71.02   L121.47,70.59 L121.60,70.17 L121.73,69.74 L121.87,69.30 L122.00,68.87 L122.13,68.43 L122.27,67.99 L122.40,67.54   L122.53,67.10 L122.67,66.65 L122.80,66.20 L122.93,65.75 L123.07,65.29 L123.20,64.83 L123.33,64.37 L123.47,63.91   L123.60,63.44 L123.73,62.98 L123.87,62.51 L124.00,62.04 L124.13,61.57 L124.27,61.10 L124.40,60.62 L124.53,60.14   L124.67,59.67 L124.80,59.19 L124.93,58.71 L125.07,58.22 L125.20,57.74 L125.33,57.26 L125.47,56.77 L125.60,56.29   L125.73,55.80 L125.87,55.31 L126.00,54.82 L126.13,54.33 L126.27,53.84 L126.40,53.35 L126.53,52.86 L126.67,52.37   L126.80,51.88 L126.93,51.39 L127.07,50.89 L127.20,50.40 L127.33,49.91 L127.47,49.42 L127.60,48.92 L127.73,48.43   L127.87,47.94 L128.00,47.45 L128.13,46.96 L128.27,46.47 L128.40,45.98 L128.53,45.49 L128.67,45.00 L128.80,44.51   L128.93,44.02 L129.07,43.54 L129.20,43.05 L129.33,42.56 L129.47,42.08 L129.60,41.60 L129.73,41.12 L129.87,40.64   L130.00,40.16 L130.13,39.68 L130.27,39.21 L130.40,38.73 L130.53,38.26 L130.67,37.79 L130.80,37.32 L130.93,36.85   L131.07,36.39 L131.20,35.92 L131.33,35.46 L131.47,35.00 L131.60,34.54 L131.73,34.09 L131.87,33.64 L132.00,33.19   L132.13,32.74 L132.27,32.29 L132.40,31.85 L132.53,31.41 L132.67,30.97 L132.80,30.54 L132.93,30.11 L133.07,29.68   L133.20,29.25 L133.33,28.83 L133.47,28.41 L133.60,27.99 L133.73,27.58 L133.87,27.17 L134.00,26.76 L134.13,26.35   L134.27,25.95 L134.40,25.56 L134.53,25.16 L134.67,24.77 L134.80,24.39 L134.93,24.00 L135.07,23.63 L135.20,23.25   L135.33,22.88 L135.47,22.51 L135.60,22.15 L135.73,21.79 L135.87,21.43 L136.00,21.08 L136.13,20.74 L136.27,20.39   L136.40,20.06 L136.53,19.72 L136.67,19.39 L136.80,19.07 L136.93,18.75 L137.07,18.43 L137.20,18.12 L137.33,17.81   L137.47,17.51 L137.60,17.21 L137.73,16.92 L137.87,16.63 L138.00,16.35 L138.13,16.07 L138.27,15.79 L138.40,15.52   L138.53,15.26 L138.67,15.00 L138.80,14.75 L138.93,14.50 L139.07,14.26 L139.20,14.02 L139.33,13.78 L139.47,13.56   L139.60,13.33 L139.73,13.12 L139.87,12.90 L140.00,12.70 L140.13,12.50 L140.27,12.30 L140.40,12.11 L140.53,11.92   L140.67,11.74 L140.80,11.57 L140.93,11.40 L141.07,11.24 L141.20,11.08 L141.33,10.93 L141.47,10.78 L141.60,10.64    "
           id="path11" />
      </g>
    </g>
    <g
       fill="none"
       color="black"
       stroke="currentColor"
       stroke-width="2.00"
       stroke-linecap="butt"
       stroke-linejoin="miter"
       id="g13" />
    <g
       fill="none"
       color="black"
       stroke="black"
       stroke-width="1.00"
       stroke-linecap="butt"
       stroke-linejoin="miter"
       id="g14" />
    <g
       fill="none"
       color="black"
       stroke="currentColor"
       stroke-width="1.00"
       stroke-linecap="butt"
       stroke-linejoin="miter"
       id="g15" />
  </g>
</svg>
