<?xml version="1.0" encoding="UTF-8" standalone="no"?>
<svg
   viewBox="0 0 150 100"
   version="1.1"
   id="svg15"
   sodipodi:docname="tf_sinus_card_t.svg"
   inkscape:version="1.3.2 (091e20ef0f, 2023-11-25)"
   xmlns:inkscape="http://www.inkscape.org/namespaces/inkscape"
   xmlns:sodipodi="http://sodipodi.sourceforge.net/DTD/sodipodi-0.dtd"
   xmlns:xlink="http://www.w3.org/1999/xlink"
   xmlns="http://www.w3.org/2000/svg"
   xmlns:svg="http://www.w3.org/2000/svg">
  <defs
     id="defs15" />
  <sodipodi:namedview
     id="namedview15"
     pagecolor="#ffffff"
     bordercolor="#666666"
     borderopacity="1.0"
     inkscape:showpageshadow="2"
     inkscape:pageopacity="0.0"
     inkscape:pagecheckerboard="0"
     inkscape:deskcolor="#d1d1d1"
     showgrid="false"
     inkscape:zoom="18.63"
     inkscape:cx="75.013419"
     inkscape:cy="50"
     inkscape:window-width="3836"
     inkscape:window-height="2097"
     inkscape:window-x="0"
     inkscape:window-y="31"
     inkscape:window-maximized="1"
     inkscape:current-layer="svg15" />
  <title
     id="title1">Gnuplot</title>
  <desc
     id="desc1">Produced by GNUPLOT 5.4.10 patchlevel 9 (Gentoo revision r0) </desc>
  <g
     id="gnuplot_canvas">
    <rect
       x="0"
       y="0"
       width="150"
       height="100"
       fill="none"
       id="rect1" />
    <defs
       id="defs2">
      <circle
         id="gpDot"
         r="0.5"
         stroke-width="0.5"
         stroke="currentColor" />
      <path
         id="gpPt0"
         stroke-width="0.222"
         stroke="currentColor"
         d="M-1,0 h2 M0,-1 v2" />
      <path
         id="gpPt1"
         stroke-width="0.222"
         stroke="currentColor"
         d="M-1,-1 L1,1 M1,-1 L-1,1" />
      <path
         id="gpPt2"
         stroke-width="0.222"
         stroke="currentColor"
         d="M-1,0 L1,0 M0,-1 L0,1 M-1,-1 L1,1 M-1,1 L1,-1" />
      <rect
         id="gpPt3"
         stroke-width="0.222"
         stroke="currentColor"
         x="-1"
         y="-1"
         width="2"
         height="2" />
      <rect
         id="gpPt4"
         stroke-width="0.222"
         stroke="currentColor"
         fill="currentColor"
         x="-1"
         y="-1"
         width="2"
         height="2" />
      <circle
         id="gpPt5"
         stroke-width="0.222"
         stroke="currentColor"
         cx="0"
         cy="0"
         r="1" />
      <use
         xlink:href="#gpPt5"
         id="gpPt6"
         fill="currentColor"
         stroke="none" />
      <path
         id="gpPt7"
         stroke-width="0.222"
         stroke="currentColor"
         d="M0,-1.33 L-1.33,0.67 L1.33,0.67 z" />
      <use
         xlink:href="#gpPt7"
         id="gpPt8"
         fill="currentColor"
         stroke="none" />
      <use
         xlink:href="#gpPt7"
         id="gpPt9"
         stroke="currentColor"
         transform="rotate(180)" />
      <use
         xlink:href="#gpPt9"
         id="gpPt10"
         fill="currentColor"
         stroke="none" />
      <use
         xlink:href="#gpPt3"
         id="gpPt11"
         stroke="currentColor"
         transform="rotate(45)" />
      <use
         xlink:href="#gpPt11"
         id="gpPt12"
         fill="currentColor"
         stroke="none" />
      <path
         id="gpPt13"
         stroke-width="0.222"
         stroke="currentColor"
         d="M0,1.330 L1.265,0.411 L0.782,-1.067 L-0.782,-1.076 L-1.265,0.411 z" />
      <use
         xlink:href="#gpPt13"
         id="gpPt14"
         fill="currentColor"
         stroke="none" />
      <filter
         id="textbox"
         filterUnits="objectBoundingBox"
         x="0"
         y="0"
         height="1"
         width="1">
        <feFlood
           flood-color="white"
           flood-opacity="1"
           result="bgnd"
           id="feFlood1" />
        <feComposite
           in="SourceGraphic"
           in2="bgnd"
           operator="atop"
           id="feComposite1" />
      </filter>
      <filter
         id="greybox"
         filterUnits="objectBoundingBox"
         x="0"
         y="0"
         height="1"
         width="1">
        <feFlood
           flood-color="lightgrey"
           flood-opacity="1"
           result="grey"
           id="feFlood2" />
        <feComposite
           in="SourceGraphic"
           in2="grey"
           operator="atop"
           id="feComposite2" />
      </filter>
    </defs>
    <g
       fill="none"
       color="white"
       stroke="currentColor"
       stroke-width="1.00"
       stroke-linecap="butt"
       stroke-linejoin="miter"
       id="g2" />
    <g
       fill="none"
       color="black"
       stroke="currentColor"
       stroke-width="1.00"
       stroke-linecap="butt"
       stroke-linejoin="miter"
       id="g4">
      <path
         stroke="black"
         d="M75.00,19.94 L66.00,19.94  "
         id="path2" />
      <g
         transform="translate(66.61,23.84)"
         stroke="none"
         fill="black"
         font-family="Arial"
         font-size="12.00"
         text-anchor="end"
         id="g3">
        <text
           id="text2"><tspan
             font-family="Arial"
             id="tspan2">1</tspan></text>
      </g>
    </g>
    <g
       fill="none"
       color="black"
       stroke="currentColor"
       stroke-width="1.00"
       stroke-linecap="butt"
       stroke-linejoin="miter"
       id="g6">
      <path
         stroke="black"
         d="M75.00,74.60 L75.00,83.60  "
         id="path4" />
      <g
         transform="translate(66.61,87.50)"
         stroke="none"
         fill="black"
         font-family="Arial"
         font-size="12.00"
         text-anchor="middle"
         id="g5">
        <text
           id="text4"><tspan
             font-family="Arial"
             id="tspan4">0</tspan></text>
      </g>
    </g>
    <g
       fill="none"
       color="black"
       stroke="currentColor"
       stroke-width="1.00"
       stroke-linecap="butt"
       stroke-linejoin="miter"
       id="g7" />
    <g
       fill="none"
       color="black"
       stroke="currentColor"
       stroke-width="1.00"
       stroke-linecap="butt"
       stroke-linejoin="miter"
       id="g8">
      <path
         stroke="black"
         d="M8.39,74.60 L141.60,74.60  "
         id="path7" />
    </g>
    <g
       fill="none"
       color="black"
       stroke="currentColor"
       stroke-width="1.00"
       stroke-linecap="butt"
       stroke-linejoin="miter"
       id="g9">
      <path
         stroke="black"
         d="M75.00,91.00 L75.00,9.01  "
         id="path8" />
    </g>
    <g
       fill="none"
       color="black"
       stroke="currentColor"
       stroke-width="1.00"
       stroke-linecap="butt"
       stroke-linejoin="miter"
       id="g10" />
    <g
       id="gnuplot_plot_1"
       fill="none">
      <title
         id="title10">gnuplot_plot_1</title>
      <g
         fill="none"
         color="white"
         stroke="black"
         stroke-width="2.00"
         stroke-linecap="butt"
         stroke-linejoin="miter"
         id="g11" />
      <g
         fill="none"
         color="black"
         stroke="currentColor"
         stroke-width="2.00"
         stroke-linecap="butt"
         stroke-linejoin="miter"
         id="g12">
        <path
           stroke="rgb(  0, 158, 115)"
           d="M8.39,72.84 L8.52,72.93 L8.66,73.03 L8.79,73.13 L8.92,73.23 L9.06,73.33 L9.19,73.44 L9.32,73.54   L9.46,73.65 L9.59,73.75 L9.72,73.86 L9.86,73.97 L9.99,74.08 L10.12,74.19 L10.26,74.30 L10.39,74.41   L10.52,74.53 L10.66,74.64 L10.79,74.75 L10.92,74.87 L11.06,74.98 L11.19,75.10 L11.32,75.21 L11.46,75.33   L11.59,75.44 L11.72,75.56 L11.86,75.67 L11.99,75.78 L12.12,75.90 L12.26,76.01 L12.39,76.12 L12.52,76.24   L12.66,76.35 L12.79,76.46 L12.92,76.57 L13.06,76.68 L13.19,76.79 L13.32,76.90 L13.46,77.00 L13.59,77.11   L13.72,77.21 L13.86,77.31 L13.99,77.41 L14.12,77.51 L14.26,77.61 L14.39,77.71 L14.52,77.80 L14.66,77.90   L14.79,77.99 L14.92,78.08 L15.06,78.17 L15.19,78.25 L15.32,78.34 L15.46,78.42 L15.59,78.50 L15.72,78.57   L15.86,78.65 L15.99,78.72 L16.12,78.79 L16.26,78.86 L16.39,78.92 L16.52,78.98 L16.66,79.04 L16.79,79.10   L16.92,79.15 L17.06,79.20 L17.19,79.25 L17.32,79.29 L17.46,79.34 L17.59,79.37 L17.72,79.41 L17.86,79.44   L17.99,79.47 L18.12,79.50 L18.26,79.52 L18.39,79.54 L18.52,79.56 L18.66,79.57 L18.79,79.58 L18.92,79.59   L19.06,79.59 L19.19,79.59 L19.32,79.59 L19.46,79.58 L19.59,79.57 L19.72,79.56 L19.86,79.54 L19.99,79.52   L20.12,79.50 L20.26,79.47 L20.39,79.44 L20.52,79.41 L20.66,79.37 L20.79,79.33 L20.92,79.28 L21.06,79.24   L21.19,79.18 L21.32,79.13 L21.46,79.07 L21.59,79.01 L21.72,78.95 L21.86,78.88 L21.99,78.81 L22.12,78.73   L22.26,78.66 L22.39,78.58 L22.52,78.49 L22.66,78.40 L22.79,78.31 L22.92,78.22 L23.06,78.13 L23.19,78.03   L23.32,77.93 L23.46,77.82 L23.59,77.72 L23.72,77.61 L23.86,77.49 L23.99,77.38 L24.12,77.26 L24.26,77.14   L24.39,77.02 L24.52,76.90 L24.66,76.77 L24.79,76.64 L24.92,76.51 L25.06,76.38 L25.19,76.24 L25.32,76.11   L25.46,75.97 L25.59,75.83 L25.72,75.69 L25.86,75.54 L25.99,75.40 L26.12,75.25 L26.26,75.11 L26.39,74.96   L26.52,74.81 L26.66,74.66 L26.79,74.51 L26.92,74.36 L27.06,74.20 L27.19,74.05 L27.32,73.90 L27.46,73.74   L27.59,73.59 L27.72,73.43 L27.86,73.28 L27.99,73.12 L28.12,72.97 L28.26,72.82 L28.39,72.66 L28.52,72.51   L28.66,72.36 L28.79,72.20 L28.92,72.05 L29.06,71.90 L29.19,71.75 L29.32,71.60 L29.46,71.46 L29.59,71.31   L29.72,71.17 L29.86,71.02 L29.99,70.88 L30.12,70.74 L30.26,70.60 L30.39,70.47 L30.52,70.33 L30.66,70.20   L30.79,70.07 L30.93,69.94 L31.06,69.82 L31.19,69.69 L31.33,69.57 L31.46,69.46 L31.59,69.34 L31.73,69.23   L31.86,69.12 L31.99,69.01 L32.13,68.91 L32.26,68.81 L32.39,68.72 L32.53,68.62 L32.66,68.53 L32.79,68.45   L32.93,68.37 L33.06,68.29 L33.19,68.21 L33.33,68.14 L33.46,68.07 L33.59,68.01 L33.73,67.95 L33.86,67.90   L33.99,67.85 L34.13,67.80 L34.26,67.76 L34.39,67.72 L34.53,67.69 L34.66,67.66 L34.79,67.64 L34.93,67.62   L35.06,67.60 L35.19,67.59 L35.33,67.59 L35.46,67.59 L35.59,67.59 L35.73,67.60 L35.86,67.61 L35.99,67.63   L36.13,67.65 L36.26,67.68 L36.39,67.71 L36.53,67.75 L36.66,67.80 L36.79,67.84 L36.93,67.90 L37.06,67.95   L37.19,68.02 L37.33,68.08 L37.46,68.16 L37.59,68.23 L37.73,68.32 L37.86,68.40 L37.99,68.49 L38.13,68.59   L38.26,68.69 L38.39,68.80 L38.53,68.91 L38.66,69.03 L38.79,69.15 L38.93,69.27 L39.06,69.40 L39.19,69.53   L39.33,69.67 L39.46,69.82 L39.59,69.96 L39.73,70.11 L39.86,70.27 L39.99,70.43 L40.13,70.59 L40.26,70.76   L40.39,70.93 L40.53,71.11 L40.66,71.29 L40.79,71.47 L40.93,71.66 L41.06,71.85 L41.19,72.04 L41.33,72.24   L41.46,72.44 L41.59,72.64 L41.73,72.84 L41.86,73.05 L41.99,73.26 L42.13,73.48 L42.26,73.70 L42.39,73.91   L42.53,74.14 L42.66,74.36 L42.79,74.58 L42.93,74.81 L43.06,75.04 L43.19,75.27 L43.33,75.50 L43.46,75.74   L43.59,75.97 L43.73,76.21 L43.86,76.44 L43.99,76.68 L44.13,76.92 L44.26,77.16 L44.39,77.40 L44.53,77.63   L44.66,77.87 L44.79,78.11 L44.93,78.35 L45.06,78.59 L45.19,78.83 L45.33,79.06 L45.46,79.30 L45.59,79.54   L45.73,79.77 L45.86,80.00 L45.99,80.23 L46.13,80.46 L46.26,80.69 L46.39,80.91 L46.53,81.14 L46.66,81.36   L46.79,81.58 L46.93,81.79 L47.06,82.00 L47.19,82.21 L47.33,82.42 L47.46,82.62 L47.59,82.82 L47.73,83.02   L47.86,83.21 L47.99,83.40 L48.13,83.59 L48.26,83.77 L48.39,83.94 L48.53,84.11 L48.66,84.28 L48.79,84.44   L48.93,84.60 L49.06,84.75 L49.19,84.89 L49.33,85.03 L49.46,85.17 L49.59,85.30 L49.73,85.42 L49.86,85.54   L49.99,85.65 L50.13,85.75 L50.26,85.85 L50.39,85.94 L50.53,86.02 L50.66,86.10 L50.79,86.17 L50.93,86.24   L51.06,86.29 L51.19,86.34 L51.33,86.38 L51.46,86.42 L51.59,86.44 L51.73,86.46 L51.86,86.47 L51.99,86.48   L52.13,86.47 L52.26,86.46 L52.39,86.44 L52.53,86.41 L52.66,86.37 L52.79,86.32 L52.93,86.27 L53.06,86.20   L53.19,86.13 L53.33,86.05 L53.46,85.96 L53.59,85.86 L53.73,85.75 L53.86,85.63 L53.99,85.51 L54.13,85.37   L54.26,85.23 L54.39,85.07 L54.53,84.91 L54.66,84.74 L54.79,84.56 L54.93,84.37 L55.06,84.17 L55.19,83.96   L55.33,83.74 L55.46,83.52 L55.59,83.28 L55.73,83.04 L55.86,82.78 L55.99,82.52 L56.13,82.25 L56.26,81.97   L56.39,81.67 L56.53,81.37 L56.66,81.07 L56.79,80.75 L56.93,80.42 L57.06,80.09 L57.19,79.74 L57.33,79.39   L57.46,79.03 L57.59,78.66 L57.73,78.28 L57.86,77.89 L57.99,77.50 L58.13,77.09 L58.26,76.68 L58.39,76.26   L58.53,75.84 L58.66,75.40 L58.79,74.96 L58.93,74.51 L59.06,74.05 L59.19,73.58 L59.33,73.11 L59.46,72.63   L59.59,72.14 L59.73,71.65 L59.86,71.15 L59.99,70.64 L60.13,70.13 L60.26,69.61 L60.39,69.09 L60.53,68.55   L60.66,68.02 L60.79,67.47 L60.93,66.93 L61.06,66.37 L61.19,65.81 L61.33,65.25 L61.46,64.68 L61.59,64.11   L61.73,63.53 L61.86,62.95 L61.99,62.37 L62.13,61.78 L62.26,61.19 L62.39,60.59 L62.53,59.99 L62.66,59.39   L62.79,58.79 L62.93,58.18 L63.06,57.57 L63.19,56.96 L63.33,56.34 L63.46,55.73 L63.59,55.11 L63.73,54.50   L63.86,53.88 L63.99,53.26 L64.13,52.64 L64.26,52.02 L64.39,51.40 L64.53,50.78 L64.66,50.16 L64.79,49.54   L64.93,48.92 L65.06,48.30 L65.19,47.68 L65.33,47.07 L65.46,46.46 L65.59,45.84 L65.73,45.24 L65.86,44.63   L65.99,44.02 L66.13,43.42 L66.26,42.82 L66.39,42.23 L66.53,41.64 L66.66,41.05 L66.79,40.47 L66.93,39.89   L67.06,39.31 L67.19,38.74 L67.33,38.18 L67.46,37.62 L67.59,37.06 L67.73,36.51 L67.86,35.97 L67.99,35.43   L68.13,34.90 L68.26,34.37 L68.39,33.86 L68.53,33.34 L68.66,32.84 L68.79,32.34 L68.93,31.85 L69.06,31.37   L69.19,30.89 L69.33,30.43 L69.46,29.97 L69.59,29.52 L69.73,29.07 L69.86,28.64 L69.99,28.22 L70.13,27.80   L70.26,27.39 L70.39,27.00 L70.53,26.61 L70.66,26.23 L70.79,25.86 L70.93,25.50 L71.06,25.16 L71.19,24.82   L71.33,24.49 L71.46,24.17 L71.59,23.87 L71.73,23.57 L71.86,23.29 L71.99,23.01 L72.13,22.75 L72.26,22.50   L72.39,22.26 L72.53,22.03 L72.66,21.81 L72.79,21.61 L72.93,21.41 L73.06,21.23 L73.19,21.06 L73.33,20.90   L73.46,20.75 L73.59,20.62 L73.73,20.50 L73.86,20.39 L73.99,20.29 L74.13,20.20 L74.26,20.13 L74.39,20.07   L74.53,20.02 L74.66,19.98 L74.79,19.96 L74.93,19.94 L75.06,19.94 L75.20,19.96 L75.33,19.98 L75.46,20.02   L75.60,20.07 L75.73,20.13 L75.86,20.20 L76.00,20.29 L76.13,20.39 L76.26,20.50 L76.40,20.62 L76.53,20.75   L76.66,20.90 L76.80,21.06 L76.93,21.23 L77.06,21.41 L77.20,21.61 L77.33,21.81 L77.46,22.03 L77.60,22.26   L77.73,22.50 L77.86,22.75 L78.00,23.01 L78.13,23.29 L78.26,23.57 L78.40,23.87 L78.53,24.17 L78.66,24.49   L78.80,24.82 L78.93,25.16 L79.06,25.50 L79.20,25.86 L79.33,26.23 L79.46,26.61 L79.60,27.00 L79.73,27.39   L79.86,27.80 L80.00,28.22 L80.13,28.64 L80.26,29.07 L80.40,29.52 L80.53,29.97 L80.66,30.43 L80.80,30.89   L80.93,31.37 L81.06,31.85 L81.20,32.34 L81.33,32.84 L81.46,33.34 L81.60,33.86 L81.73,34.37 L81.86,34.90   L82.00,35.43 L82.13,35.97 L82.26,36.51 L82.40,37.06 L82.53,37.62 L82.66,38.18 L82.80,38.74 L82.93,39.31   L83.06,39.89 L83.20,40.47 L83.33,41.05 L83.46,41.64 L83.60,42.23 L83.73,42.82 L83.86,43.42 L84.00,44.02   L84.13,44.63 L84.26,45.24 L84.40,45.84 L84.53,46.46 L84.66,47.07 L84.80,47.68 L84.93,48.30 L85.06,48.92   L85.20,49.54 L85.33,50.16 L85.46,50.78 L85.60,51.40 L85.73,52.02 L85.86,52.64 L86.00,53.26 L86.13,53.88   L86.26,54.50 L86.40,55.11 L86.53,55.73 L86.66,56.34 L86.80,56.96 L86.93,57.57 L87.06,58.18 L87.20,58.79   L87.33,59.39 L87.46,59.99 L87.60,60.59 L87.73,61.19 L87.86,61.78 L88.00,62.37 L88.13,62.95 L88.26,63.53   L88.40,64.11 L88.53,64.68 L88.66,65.25 L88.80,65.81 L88.93,66.37 L89.06,66.93 L89.20,67.47 L89.33,68.02   L89.46,68.55 L89.60,69.09 L89.73,69.61 L89.86,70.13 L90.00,70.64 L90.13,71.15 L90.26,71.65 L90.40,72.14   L90.53,72.63 L90.66,73.11 L90.80,73.58 L90.93,74.05 L91.06,74.51 L91.20,74.96 L91.33,75.40 L91.46,75.84   L91.60,76.26 L91.73,76.68 L91.86,77.09 L92.00,77.50 L92.13,77.89 L92.26,78.28 L92.40,78.66 L92.53,79.03   L92.66,79.39 L92.80,79.74 L92.93,80.09 L93.06,80.42 L93.20,80.75 L93.33,81.07 L93.46,81.37 L93.60,81.67   L93.73,81.97 L93.86,82.25 L94.00,82.52 L94.13,82.78 L94.26,83.04 L94.40,83.28 L94.53,83.52 L94.66,83.74   L94.80,83.96 L94.93,84.17 L95.06,84.37 L95.20,84.56 L95.33,84.74 L95.46,84.91 L95.60,85.07 L95.73,85.23   L95.86,85.37 L96.00,85.51 L96.13,85.63 L96.26,85.75 L96.40,85.86 L96.53,85.96 L96.66,86.05 L96.80,86.13   L96.93,86.20 L97.06,86.27 L97.20,86.32 L97.33,86.37 L97.46,86.41 L97.60,86.44 L97.73,86.46 L97.86,86.47   L98.00,86.48 L98.13,86.47 L98.26,86.46 L98.40,86.44 L98.53,86.42 L98.66,86.38 L98.80,86.34 L98.93,86.29   L99.06,86.24 L99.20,86.17 L99.33,86.10 L99.46,86.02 L99.60,85.94 L99.73,85.85 L99.86,85.75 L100.00,85.65   L100.13,85.54 L100.26,85.42 L100.40,85.30 L100.53,85.17 L100.66,85.03 L100.80,84.89 L100.93,84.75 L101.06,84.60   L101.20,84.44 L101.33,84.28 L101.46,84.11 L101.60,83.94 L101.73,83.77 L101.86,83.59 L102.00,83.40 L102.13,83.21   L102.26,83.02 L102.40,82.82 L102.53,82.62 L102.66,82.42 L102.80,82.21 L102.93,82.00 L103.06,81.79 L103.20,81.58   L103.33,81.36 L103.46,81.14 L103.60,80.91 L103.73,80.69 L103.86,80.46 L104.00,80.23 L104.13,80.00 L104.26,79.77   L104.40,79.54 L104.53,79.30 L104.66,79.06 L104.80,78.83 L104.93,78.59 L105.06,78.35 L105.20,78.11 L105.33,77.87   L105.46,77.63 L105.60,77.40 L105.73,77.16 L105.86,76.92 L106.00,76.68 L106.13,76.44 L106.26,76.21 L106.40,75.97   L106.53,75.74 L106.66,75.50 L106.80,75.27 L106.93,75.04 L107.06,74.81 L107.20,74.58 L107.33,74.36 L107.46,74.14   L107.60,73.91 L107.73,73.70 L107.86,73.48 L108.00,73.26 L108.13,73.05 L108.26,72.84 L108.40,72.64 L108.53,72.44   L108.66,72.24 L108.80,72.04 L108.93,71.85 L109.06,71.66 L109.20,71.47 L109.33,71.29 L109.46,71.11 L109.60,70.93   L109.73,70.76 L109.86,70.59 L110.00,70.43 L110.13,70.27 L110.26,70.11 L110.40,69.96 L110.53,69.82 L110.66,69.67   L110.80,69.53 L110.93,69.40 L111.06,69.27 L111.20,69.15 L111.33,69.03 L111.46,68.91 L111.60,68.80 L111.73,68.69   L111.86,68.59 L112.00,68.49 L112.13,68.40 L112.26,68.32 L112.40,68.23 L112.53,68.16 L112.66,68.08 L112.80,68.02   L112.93,67.95 L113.06,67.90 L113.20,67.84 L113.33,67.80 L113.46,67.75 L113.60,67.71 L113.73,67.68 L113.86,67.65   L114.00,67.63 L114.13,67.61 L114.26,67.60 L114.40,67.59 L114.53,67.59 L114.66,67.59 L114.80,67.59 L114.93,67.60   L115.06,67.62 L115.20,67.64 L115.33,67.66 L115.46,67.69 L115.60,67.72 L115.73,67.76 L115.86,67.80 L116.00,67.85   L116.13,67.90 L116.26,67.95 L116.40,68.01 L116.53,68.07 L116.66,68.14 L116.80,68.21 L116.93,68.29 L117.06,68.37   L117.20,68.45 L117.33,68.53 L117.46,68.62 L117.60,68.72 L117.73,68.81 L117.86,68.91 L118.00,69.01 L118.13,69.12   L118.26,69.23 L118.40,69.34 L118.53,69.46 L118.66,69.57 L118.80,69.69 L118.93,69.82 L119.06,69.94 L119.20,70.07   L119.33,70.20 L119.47,70.33 L119.60,70.47 L119.73,70.60 L119.87,70.74 L120.00,70.88 L120.13,71.02 L120.27,71.17   L120.40,71.31 L120.53,71.46 L120.67,71.60 L120.80,71.75 L120.93,71.90 L121.07,72.05 L121.20,72.20 L121.33,72.36   L121.47,72.51 L121.60,72.66 L121.73,72.82 L121.87,72.97 L122.00,73.12 L122.13,73.28 L122.27,73.43 L122.40,73.59   L122.53,73.74 L122.67,73.90 L122.80,74.05 L122.93,74.20 L123.07,74.36 L123.20,74.51 L123.33,74.66 L123.47,74.81   L123.60,74.96 L123.73,75.11 L123.87,75.25 L124.00,75.40 L124.13,75.54 L124.27,75.69 L124.40,75.83 L124.53,75.97   L124.67,76.11 L124.80,76.24 L124.93,76.38 L125.07,76.51 L125.20,76.64 L125.33,76.77 L125.47,76.90 L125.60,77.02   L125.73,77.14 L125.87,77.26 L126.00,77.38 L126.13,77.49 L126.27,77.61 L126.40,77.72 L126.53,77.82 L126.67,77.93   L126.80,78.03 L126.93,78.13 L127.07,78.22 L127.20,78.31 L127.33,78.40 L127.47,78.49 L127.60,78.58 L127.73,78.66   L127.87,78.73 L128.00,78.81 L128.13,78.88 L128.27,78.95 L128.40,79.01 L128.53,79.07 L128.67,79.13 L128.80,79.18   L128.93,79.24 L129.07,79.28 L129.20,79.33 L129.33,79.37 L129.47,79.41 L129.60,79.44 L129.73,79.47 L129.87,79.50   L130.00,79.52 L130.13,79.54 L130.27,79.56 L130.40,79.57 L130.53,79.58 L130.67,79.59 L130.80,79.59 L130.93,79.59   L131.07,79.59 L131.20,79.58 L131.33,79.57 L131.47,79.56 L131.60,79.54 L131.73,79.52 L131.87,79.50 L132.00,79.47   L132.13,79.44 L132.27,79.41 L132.40,79.37 L132.53,79.34 L132.67,79.29 L132.80,79.25 L132.93,79.20 L133.07,79.15   L133.20,79.10 L133.33,79.04 L133.47,78.98 L133.60,78.92 L133.73,78.86 L133.87,78.79 L134.00,78.72 L134.13,78.65   L134.27,78.57 L134.40,78.50 L134.53,78.42 L134.67,78.34 L134.80,78.25 L134.93,78.17 L135.07,78.08 L135.20,77.99   L135.33,77.90 L135.47,77.80 L135.60,77.71 L135.73,77.61 L135.87,77.51 L136.00,77.41 L136.13,77.31 L136.27,77.21   L136.40,77.11 L136.53,77.00 L136.67,76.90 L136.80,76.79 L136.93,76.68 L137.07,76.57 L137.20,76.46 L137.33,76.35   L137.47,76.24 L137.60,76.12 L137.73,76.01 L137.87,75.90 L138.00,75.78 L138.13,75.67 L138.27,75.56 L138.40,75.44   L138.53,75.33 L138.67,75.21 L138.80,75.10 L138.93,74.98 L139.07,74.87 L139.20,74.75 L139.33,74.64 L139.47,74.53   L139.60,74.41 L139.73,74.30 L139.87,74.19 L140.00,74.08 L140.13,73.97 L140.27,73.86 L140.40,73.75 L140.53,73.65   L140.67,73.54 L140.80,73.44 L140.93,73.33 L141.07,73.23 L141.20,73.13 L141.33,73.03 L141.47,72.93 L141.60,72.84    "
           id="path11" />
      </g>
    </g>
    <g
       fill="none"
       color="black"
       stroke="currentColor"
       stroke-width="2.00"
       stroke-linecap="butt"
       stroke-linejoin="miter"
       id="g13" />
    <g
       fill="none"
       color="black"
       stroke="black"
       stroke-width="1.00"
       stroke-linecap="butt"
       stroke-linejoin="miter"
       id="g14" />
    <g
       fill="none"
       color="black"
       stroke="currentColor"
       stroke-width="1.00"
       stroke-linecap="butt"
       stroke-linejoin="miter"
       id="g15" />
  </g>
  <rect
     style="fill:#c8c4b7;fill-opacity:0.22016;stroke:#1a1a1a;stroke-width:2"
     id="rect15"
     width="146.57854"
     height="96.275169"
     x="1.7107315"
     y="1.8624153"
     rx="6.9753823"
     ry="6.9753823" />
</svg>
