<?xml version="1.0" encoding="UTF-8" standalone="no"?>
<svg
   viewBox="0 0 150 100"
   version="1.1"
   id="svg15"
   sodipodi:docname="tf_sinus_t.svg"
   inkscape:version="1.3.2 (091e20ef0f, 2023-11-25)"
   xmlns:inkscape="http://www.inkscape.org/namespaces/inkscape"
   xmlns:sodipodi="http://sodipodi.sourceforge.net/DTD/sodipodi-0.dtd"
   xmlns:xlink="http://www.w3.org/1999/xlink"
   xmlns="http://www.w3.org/2000/svg"
   xmlns:svg="http://www.w3.org/2000/svg">
  <defs
     id="defs15" />
  <sodipodi:namedview
     id="namedview15"
     pagecolor="#ffffff"
     bordercolor="#666666"
     borderopacity="1.0"
     inkscape:showpageshadow="2"
     inkscape:pageopacity="0.0"
     inkscape:pagecheckerboard="0"
     inkscape:deskcolor="#d1d1d1"
     showgrid="false"
     inkscape:zoom="18.63"
     inkscape:cx="75.013419"
     inkscape:cy="50"
     inkscape:window-width="3836"
     inkscape:window-height="2097"
     inkscape:window-x="0"
     inkscape:window-y="31"
     inkscape:window-maximized="1"
     inkscape:current-layer="gnuplot_canvas" />
  <title
     id="title1">Gnuplot</title>
  <desc
     id="desc1">Produced by GNUPLOT 5.4.10 patchlevel 9 (Gentoo revision r0) </desc>
  <g
     id="gnuplot_canvas">
    <rect
       style="fill:#c8c4b7;fill-opacity:0.22016;stroke:#1a1a1a;stroke-width:2"
       id="rect15"
       width="146.57854"
       height="96.275169"
       x="1.7107315"
       y="1.8624153"
       rx="6.9753823"
       ry="6.9753823" />
    <rect
       x="0"
       y="0"
       width="150"
       height="100"
       fill="none"
       id="rect1" />
    <defs
       id="defs2">
      <circle
         id="gpDot"
         r="0.5"
         stroke-width="0.5"
         stroke="currentColor" />
      <path
         id="gpPt0"
         stroke-width="0.222"
         stroke="currentColor"
         d="M-1,0 h2 M0,-1 v2" />
      <path
         id="gpPt1"
         stroke-width="0.222"
         stroke="currentColor"
         d="M-1,-1 L1,1 M1,-1 L-1,1" />
      <path
         id="gpPt2"
         stroke-width="0.222"
         stroke="currentColor"
         d="M-1,0 L1,0 M0,-1 L0,1 M-1,-1 L1,1 M-1,1 L1,-1" />
      <rect
         id="gpPt3"
         stroke-width="0.222"
         stroke="currentColor"
         x="-1"
         y="-1"
         width="2"
         height="2" />
      <rect
         id="gpPt4"
         stroke-width="0.222"
         stroke="currentColor"
         fill="currentColor"
         x="-1"
         y="-1"
         width="2"
         height="2" />
      <circle
         id="gpPt5"
         stroke-width="0.222"
         stroke="currentColor"
         cx="0"
         cy="0"
         r="1" />
      <use
         xlink:href="#gpPt5"
         id="gpPt6"
         fill="currentColor"
         stroke="none" />
      <path
         id="gpPt7"
         stroke-width="0.222"
         stroke="currentColor"
         d="M0,-1.33 L-1.33,0.67 L1.33,0.67 z" />
      <use
         xlink:href="#gpPt7"
         id="gpPt8"
         fill="currentColor"
         stroke="none" />
      <use
         xlink:href="#gpPt7"
         id="gpPt9"
         stroke="currentColor"
         transform="rotate(180)" />
      <use
         xlink:href="#gpPt9"
         id="gpPt10"
         fill="currentColor"
         stroke="none" />
      <use
         xlink:href="#gpPt3"
         id="gpPt11"
         stroke="currentColor"
         transform="rotate(45)" />
      <use
         xlink:href="#gpPt11"
         id="gpPt12"
         fill="currentColor"
         stroke="none" />
      <path
         id="gpPt13"
         stroke-width="0.222"
         stroke="currentColor"
         d="M0,1.330 L1.265,0.411 L0.782,-1.067 L-0.782,-1.076 L-1.265,0.411 z" />
      <use
         xlink:href="#gpPt13"
         id="gpPt14"
         fill="currentColor"
         stroke="none" />
      <filter
         id="textbox"
         filterUnits="objectBoundingBox"
         x="0"
         y="0"
         height="1"
         width="1">
        <feFlood
           flood-color="white"
           flood-opacity="1"
           result="bgnd"
           id="feFlood1" />
        <feComposite
           in="SourceGraphic"
           in2="bgnd"
           operator="atop"
           id="feComposite1" />
      </filter>
      <filter
         id="greybox"
         filterUnits="objectBoundingBox"
         x="0"
         y="0"
         height="1"
         width="1">
        <feFlood
           flood-color="lightgrey"
           flood-opacity="1"
           result="grey"
           id="feFlood2" />
        <feComposite
           in="SourceGraphic"
           in2="grey"
           operator="atop"
           id="feComposite2" />
      </filter>
    </defs>
    <g
       fill="none"
       color="white"
       stroke="currentColor"
       stroke-width="1.00"
       stroke-linecap="butt"
       stroke-linejoin="miter"
       id="g2" />
    <g
       fill="none"
       color="#000000"
       stroke="currentColor"
       stroke-width="1"
       stroke-linecap="butt"
       stroke-linejoin="miter"
       id="g4"
       transform="translate(0,-6)">
      <g
         transform="translate(70.8,21.91)"
         stroke="none"
         fill="#000000"
         font-family="Arial"
         font-size="12px"
         text-anchor="end"
         id="g3">
        <text
           id="text2"><tspan
             font-family="Arial"
             id="tspan2">1</tspan></text>
      </g>
    </g>
    <g
       fill="none"
       color="black"
       stroke="currentColor"
       stroke-width="1.00"
       stroke-linecap="butt"
       stroke-linejoin="miter"
       id="g6">
      <path
         stroke="black"
         d="M75.00,50.00 L75.00,59.00  "
         id="path4" />
      <g
         transform="translate(66.61,62.90)"
         stroke="none"
         fill="black"
         font-family="Arial"
         font-size="12.00"
         text-anchor="middle"
         id="g5">
        <text
           id="text4"><tspan
             font-family="Arial"
             id="tspan4">0</tspan></text>
      </g>
    </g>
    <g
       fill="none"
       color="black"
       stroke="currentColor"
       stroke-width="1.00"
       stroke-linecap="butt"
       stroke-linejoin="miter"
       id="g7" />
    <g
       fill="none"
       color="black"
       stroke="currentColor"
       stroke-width="1.00"
       stroke-linecap="butt"
       stroke-linejoin="miter"
       id="g8">
      <path
         stroke="black"
         d="M8.39,50.00 L141.60,50.00  "
         id="path7" />
    </g>
    <g
       fill="none"
       color="black"
       stroke="currentColor"
       stroke-width="1.00"
       stroke-linecap="butt"
       stroke-linejoin="miter"
       id="g9">
      <path
         stroke="black"
         d="M75.00,91.00 L75.00,9.01  "
         id="path8" />
    </g>
    <g
       fill="none"
       color="black"
       stroke="currentColor"
       stroke-width="1.00"
       stroke-linecap="butt"
       stroke-linejoin="miter"
       id="g10" />
    <g
       id="gnuplot_plot_1"
       fill="none">
      <title
         id="title10">gnuplot_plot_1</title>
      <g
         fill="none"
         color="white"
         stroke="black"
         stroke-width="2.00"
         stroke-linecap="butt"
         stroke-linejoin="miter"
         id="g11" />
      <g
         fill="none"
         color="black"
         stroke="currentColor"
         stroke-width="2.00"
         stroke-linecap="butt"
         stroke-linejoin="miter"
         id="g12">
        <path
           stroke="rgb(  0, 158, 115)"
           d="M8.39,38.55 L8.52,38.08 L8.66,37.61 L8.79,37.14 L8.92,36.67 L9.06,36.21 L9.19,35.75 L9.32,35.28   L9.46,34.83 L9.59,34.37 L9.72,33.92 L9.86,33.46 L9.99,33.01 L10.12,32.57 L10.26,32.12 L10.39,31.68   L10.52,31.24 L10.66,30.81 L10.79,30.37 L10.92,29.94 L11.06,29.51 L11.19,29.09 L11.32,28.67 L11.46,28.25   L11.59,27.83 L11.72,27.42 L11.86,27.01 L11.99,26.60 L12.12,26.20 L12.26,25.80 L12.39,25.41 L12.52,25.01   L12.66,24.63 L12.79,24.24 L12.92,23.86 L13.06,23.48 L13.19,23.11 L13.32,22.74 L13.46,22.37 L13.59,22.01   L13.72,21.65 L13.86,21.30 L13.99,20.95 L14.12,20.61 L14.26,20.26 L14.39,19.93 L14.52,19.60 L14.66,19.27   L14.79,18.94 L14.92,18.62 L15.06,18.31 L15.19,18.00 L15.32,17.69 L15.46,17.39 L15.59,17.10 L15.72,16.81   L15.86,16.52 L15.99,16.24 L16.12,15.96 L16.26,15.69 L16.39,15.42 L16.52,15.16 L16.66,14.90 L16.79,14.65   L16.92,14.41 L17.06,14.16 L17.19,13.93 L17.32,13.70 L17.46,13.47 L17.59,13.25 L17.72,13.03 L17.86,12.82   L17.99,12.62 L18.12,12.42 L18.26,12.23 L18.39,12.04 L18.52,11.85 L18.66,11.68 L18.79,11.50 L18.92,11.34   L19.06,11.18 L19.19,11.02 L19.32,10.87 L19.46,10.73 L19.59,10.59 L19.72,10.46 L19.86,10.33 L19.99,10.21   L20.12,10.09 L20.26,9.99 L20.39,9.88 L20.52,9.78 L20.66,9.69 L20.79,9.60 L20.92,9.52 L21.06,9.45   L21.19,9.38 L21.32,9.32 L21.46,9.26 L21.59,9.21 L21.72,9.16 L21.86,9.12 L21.99,9.09 L22.12,9.06   L22.26,9.04 L22.39,9.02 L22.52,9.01 L22.66,9.01 L22.79,9.01 L22.92,9.02 L23.06,9.03 L23.19,9.05   L23.32,9.08 L23.46,9.11 L23.59,9.15 L23.72,9.19 L23.86,9.24 L23.99,9.29 L24.12,9.35 L24.26,9.42   L24.39,9.49 L24.52,9.57 L24.66,9.66 L24.79,9.75 L24.92,9.84 L25.06,9.94 L25.19,10.05 L25.32,10.16   L25.46,10.28 L25.59,10.41 L25.72,10.54 L25.86,10.67 L25.99,10.82 L26.12,10.96 L26.26,11.12 L26.39,11.28   L26.52,11.44 L26.66,11.61 L26.79,11.78 L26.92,11.97 L27.06,12.15 L27.19,12.34 L27.32,12.54 L27.46,12.74   L27.59,12.95 L27.72,13.17 L27.86,13.38 L27.99,13.61 L28.12,13.84 L28.26,14.07 L28.39,14.31 L28.52,14.56   L28.66,14.81 L28.79,15.06 L28.92,15.32 L29.06,15.59 L29.19,15.86 L29.32,16.13 L29.46,16.41 L29.59,16.69   L29.72,16.98 L29.86,17.28 L29.99,17.58 L30.12,17.88 L30.26,18.19 L30.39,18.50 L30.52,18.82 L30.66,19.14   L30.79,19.47 L30.93,19.80 L31.06,20.13 L31.19,20.47 L31.33,20.82 L31.46,21.16 L31.59,21.52 L31.73,21.87   L31.86,22.23 L31.99,22.60 L32.13,22.97 L32.26,23.34 L32.39,23.71 L32.53,24.09 L32.66,24.48 L32.79,24.86   L32.93,25.25 L33.06,25.65 L33.19,26.05 L33.33,26.45 L33.46,26.85 L33.59,27.26 L33.73,27.67 L33.86,28.09   L33.99,28.50 L34.13,28.92 L34.26,29.35 L34.39,29.78 L34.53,30.21 L34.66,30.64 L34.79,31.07 L34.93,31.51   L35.06,31.95 L35.19,32.40 L35.33,32.84 L35.46,33.29 L35.59,33.74 L35.73,34.19 L35.86,34.65 L35.99,35.11   L36.13,35.57 L36.26,36.03 L36.39,36.49 L36.53,36.96 L36.66,37.43 L36.79,37.90 L36.93,38.37 L37.06,38.84   L37.19,39.32 L37.33,39.79 L37.46,40.27 L37.59,40.75 L37.73,41.23 L37.86,41.71 L37.99,42.19 L38.13,42.68   L38.26,43.16 L38.39,43.65 L38.53,44.13 L38.66,44.62 L38.79,45.11 L38.93,45.60 L39.06,46.09 L39.19,46.58   L39.33,47.07 L39.46,47.56 L39.59,48.05 L39.73,48.55 L39.86,49.04 L39.99,49.53 L40.13,50.02 L40.26,50.52   L40.39,51.01 L40.53,51.50 L40.66,51.99 L40.79,52.48 L40.93,52.98 L41.06,53.47 L41.19,53.96 L41.33,54.45   L41.46,54.94 L41.59,55.42 L41.73,55.91 L41.86,56.40 L41.99,56.88 L42.13,57.37 L42.26,57.85 L42.39,58.34   L42.53,58.82 L42.66,59.30 L42.79,59.78 L42.93,60.25 L43.06,60.73 L43.19,61.21 L43.33,61.68 L43.46,62.15   L43.59,62.62 L43.73,63.09 L43.86,63.55 L43.99,64.02 L44.13,64.48 L44.26,64.94 L44.39,65.39 L44.53,65.85   L44.66,66.30 L44.79,66.75 L44.93,67.20 L45.06,67.65 L45.19,68.09 L45.33,68.53 L45.46,68.97 L45.59,69.40   L45.73,69.84 L45.86,70.27 L45.99,70.69 L46.13,71.12 L46.26,71.54 L46.39,71.95 L46.53,72.37 L46.66,72.78   L46.79,73.19 L46.93,73.59 L47.06,73.99 L47.19,74.39 L47.33,74.79 L47.46,75.18 L47.59,75.56 L47.73,75.95   L47.86,76.33 L47.99,76.70 L48.13,77.07 L48.26,77.44 L48.39,77.80 L48.53,78.16 L48.66,78.52 L48.79,78.87   L48.93,79.22 L49.06,79.56 L49.19,79.90 L49.33,80.24 L49.46,80.57 L49.59,80.89 L49.73,81.21 L49.86,81.53   L49.99,81.84 L50.13,82.15 L50.26,82.46 L50.39,82.75 L50.53,83.05 L50.66,83.34 L50.79,83.62 L50.93,83.90   L51.06,84.17 L51.19,84.44 L51.33,84.71 L51.46,84.97 L51.59,85.22 L51.73,85.47 L51.86,85.72 L51.99,85.96   L52.13,86.19 L52.26,86.42 L52.39,86.64 L52.53,86.86 L52.66,87.07 L52.79,87.28 L52.93,87.48 L53.06,87.68   L53.19,87.87 L53.33,88.06 L53.46,88.24 L53.59,88.41 L53.73,88.58 L53.86,88.75 L53.99,88.90 L54.13,89.06   L54.26,89.20 L54.39,89.35 L54.53,89.48 L54.66,89.61 L54.79,89.74 L54.93,89.85 L55.06,89.97 L55.19,90.07   L55.33,90.17 L55.46,90.27 L55.59,90.36 L55.73,90.44 L55.86,90.52 L55.99,90.59 L56.13,90.66 L56.26,90.72   L56.39,90.77 L56.53,90.82 L56.66,90.87 L56.79,90.90 L56.93,90.93 L57.06,90.96 L57.19,90.98 L57.33,90.99   L57.46,91.00 L57.59,91.00 L57.73,91.00 L57.86,90.98 L57.99,90.97 L58.13,90.95 L58.26,90.92 L58.39,90.88   L58.53,90.84 L58.66,90.80 L58.79,90.75 L58.93,90.69 L59.06,90.63 L59.19,90.56 L59.33,90.48 L59.46,90.40   L59.59,90.31 L59.73,90.22 L59.86,90.12 L59.99,90.02 L60.13,89.91 L60.26,89.79 L60.39,89.67 L60.53,89.54   L60.66,89.41 L60.79,89.27 L60.93,89.13 L61.06,88.98 L61.19,88.82 L61.33,88.66 L61.46,88.49 L61.59,88.32   L61.73,88.14 L61.86,87.96 L61.99,87.77 L62.13,87.58 L62.26,87.38 L62.39,87.17 L62.53,86.96 L62.66,86.74   L62.79,86.52 L62.93,86.30 L63.06,86.07 L63.19,85.83 L63.33,85.59 L63.46,85.34 L63.59,85.09 L63.73,84.83   L63.86,84.57 L63.99,84.30 L64.13,84.03 L64.26,83.75 L64.39,83.47 L64.53,83.18 L64.66,82.89 L64.79,82.59   L64.93,82.29 L65.06,81.99 L65.19,81.68 L65.33,81.36 L65.46,81.04 L65.59,80.72 L65.73,80.39 L65.86,80.06   L65.99,79.72 L66.13,79.38 L66.26,79.03 L66.39,78.68 L66.53,78.33 L66.66,77.97 L66.79,77.61 L66.93,77.24   L67.06,76.87 L67.19,76.50 L67.33,76.12 L67.46,75.74 L67.59,75.36 L67.73,74.97 L67.86,74.57 L67.99,74.18   L68.13,73.78 L68.26,73.38 L68.39,72.97 L68.53,72.56 L68.66,72.15 L68.79,71.73 L68.93,71.31 L69.06,70.89   L69.19,70.46 L69.33,70.04 L69.46,69.61 L69.59,69.17 L69.73,68.73 L69.86,68.30 L69.99,67.85 L70.13,67.41   L70.26,66.96 L70.39,66.51 L70.53,66.06 L70.66,65.61 L70.79,65.15 L70.93,64.69 L71.06,64.23 L71.19,63.77   L71.33,63.30 L71.46,62.84 L71.59,62.37 L71.73,61.90 L71.86,61.42 L71.99,60.95 L72.13,60.47 L72.26,60.00   L72.39,59.52 L72.53,59.04 L72.66,58.56 L72.79,58.08 L72.93,57.59 L73.06,57.11 L73.19,56.62 L73.33,56.14   L73.46,55.65 L73.59,55.16 L73.73,54.67 L73.86,54.18 L73.99,53.69 L74.13,53.20 L74.26,52.71 L74.39,52.22   L74.53,51.73 L74.66,51.24 L74.79,50.74 L74.93,50.25 L75.06,49.76 L75.20,49.27 L75.33,48.77 L75.46,48.28   L75.60,47.79 L75.73,47.30 L75.86,46.81 L76.00,46.32 L76.13,45.83 L76.26,45.34 L76.40,44.85 L76.53,44.36   L76.66,43.87 L76.80,43.39 L76.93,42.90 L77.06,42.42 L77.20,41.93 L77.33,41.45 L77.46,40.97 L77.60,40.49   L77.73,40.01 L77.86,39.54 L78.00,39.06 L78.13,38.59 L78.26,38.11 L78.40,37.64 L78.53,37.17 L78.66,36.71   L78.80,36.24 L78.93,35.78 L79.06,35.32 L79.20,34.86 L79.33,34.40 L79.46,33.95 L79.60,33.50 L79.73,33.05   L79.86,32.60 L80.00,32.16 L80.13,31.71 L80.26,31.28 L80.40,30.84 L80.53,30.40 L80.66,29.97 L80.80,29.55   L80.93,29.12 L81.06,28.70 L81.20,28.28 L81.33,27.86 L81.46,27.45 L81.60,27.04 L81.73,26.63 L81.86,26.23   L82.00,25.83 L82.13,25.44 L82.26,25.04 L82.40,24.65 L82.53,24.27 L82.66,23.89 L82.80,23.51 L82.93,23.14   L83.06,22.77 L83.20,22.40 L83.33,22.04 L83.46,21.68 L83.60,21.33 L83.73,20.98 L83.86,20.63 L84.00,20.29   L84.13,19.95 L84.26,19.62 L84.40,19.29 L84.53,18.97 L84.66,18.65 L84.80,18.33 L84.93,18.02 L85.06,17.72   L85.20,17.42 L85.33,17.12 L85.46,16.83 L85.60,16.54 L85.73,16.26 L85.86,15.98 L86.00,15.71 L86.13,15.44   L86.26,15.18 L86.40,14.92 L86.53,14.67 L86.66,14.42 L86.80,14.18 L86.93,13.94 L87.06,13.71 L87.20,13.49   L87.33,13.27 L87.46,13.05 L87.60,12.84 L87.73,12.63 L87.86,12.43 L88.00,12.24 L88.13,12.05 L88.26,11.87   L88.40,11.69 L88.53,11.52 L88.66,11.35 L88.80,11.19 L88.93,11.03 L89.06,10.88 L89.20,10.74 L89.33,10.60   L89.46,10.47 L89.60,10.34 L89.73,10.22 L89.86,10.10 L90.00,9.99 L90.13,9.89 L90.26,9.79 L90.40,9.70   L90.53,9.61 L90.66,9.53 L90.80,9.45 L90.93,9.38 L91.06,9.32 L91.20,9.26 L91.33,9.21 L91.46,9.17   L91.60,9.13 L91.73,9.09 L91.86,9.06 L92.00,9.04 L92.13,9.03 L92.26,9.01 L92.40,9.01 L92.53,9.01   L92.66,9.02 L92.80,9.03 L92.93,9.05 L93.06,9.08 L93.20,9.11 L93.33,9.14 L93.46,9.19 L93.60,9.24   L93.73,9.29 L93.86,9.35 L94.00,9.42 L94.13,9.49 L94.26,9.57 L94.40,9.65 L94.53,9.74 L94.66,9.84   L94.80,9.94 L94.93,10.04 L95.06,10.16 L95.20,10.27 L95.33,10.40 L95.46,10.53 L95.60,10.66 L95.73,10.81   L95.86,10.95 L96.00,11.11 L96.13,11.26 L96.26,11.43 L96.40,11.60 L96.53,11.77 L96.66,11.95 L96.80,12.14   L96.93,12.33 L97.06,12.53 L97.20,12.73 L97.33,12.94 L97.46,13.15 L97.60,13.37 L97.73,13.59 L97.86,13.82   L98.00,14.05 L98.13,14.29 L98.26,14.54 L98.40,14.79 L98.53,15.04 L98.66,15.30 L98.80,15.57 L98.93,15.84   L99.06,16.11 L99.20,16.39 L99.33,16.67 L99.46,16.96 L99.60,17.26 L99.73,17.55 L99.86,17.86 L100.00,18.17   L100.13,18.48 L100.26,18.80 L100.40,19.12 L100.53,19.44 L100.66,19.77 L100.80,20.11 L100.93,20.45 L101.06,20.79   L101.20,21.14 L101.33,21.49 L101.46,21.85 L101.60,22.21 L101.73,22.57 L101.86,22.94 L102.00,23.31 L102.13,23.68   L102.26,24.06 L102.40,24.45 L102.53,24.83 L102.66,25.22 L102.80,25.62 L102.93,26.02 L103.06,26.42 L103.20,26.82   L103.33,27.23 L103.46,27.64 L103.60,28.06 L103.73,28.47 L103.86,28.89 L104.00,29.32 L104.13,29.74 L104.26,30.17   L104.40,30.61 L104.53,31.04 L104.66,31.48 L104.80,31.92 L104.93,32.36 L105.06,32.81 L105.20,33.26 L105.33,33.71   L105.46,34.16 L105.60,34.62 L105.73,35.07 L105.86,35.53 L106.00,35.99 L106.13,36.46 L106.26,36.92 L106.40,37.39   L106.53,37.86 L106.66,38.33 L106.80,38.80 L106.93,39.28 L107.06,39.76 L107.20,40.23 L107.33,40.71 L107.46,41.19   L107.60,41.67 L107.73,42.16 L107.86,42.64 L108.00,43.13 L108.13,43.61 L108.26,44.10 L108.40,44.59 L108.53,45.07   L108.66,45.56 L108.80,46.05 L108.93,46.54 L109.06,47.03 L109.20,47.53 L109.33,48.02 L109.46,48.51 L109.60,49.00   L109.73,49.49 L109.86,49.99 L110.00,50.48 L110.13,50.97 L110.26,51.46 L110.40,51.96 L110.53,52.45 L110.66,52.94   L110.80,53.43 L110.93,53.92 L111.06,54.41 L111.20,54.90 L111.33,55.39 L111.46,55.88 L111.60,56.36 L111.73,56.85   L111.86,57.33 L112.00,57.82 L112.13,58.30 L112.26,58.78 L112.40,59.26 L112.53,59.74 L112.66,60.22 L112.80,60.69   L112.93,61.17 L113.06,61.64 L113.20,62.11 L113.33,62.58 L113.46,63.05 L113.60,63.52 L113.73,63.98 L113.86,64.44   L114.00,64.90 L114.13,65.36 L114.26,65.82 L114.40,66.27 L114.53,66.72 L114.66,67.17 L114.80,67.61 L114.93,68.06   L115.06,68.50 L115.20,68.94 L115.33,69.37 L115.46,69.80 L115.60,70.23 L115.73,70.66 L115.86,71.09 L116.00,71.51   L116.13,71.92 L116.26,72.34 L116.40,72.75 L116.53,73.16 L116.66,73.56 L116.80,73.96 L116.93,74.36 L117.06,74.76   L117.20,75.15 L117.33,75.53 L117.46,75.92 L117.60,76.30 L117.73,76.67 L117.86,77.04 L118.00,77.41 L118.13,77.78   L118.26,78.14 L118.40,78.49 L118.53,78.85 L118.66,79.19 L118.80,79.54 L118.93,79.88 L119.06,80.21 L119.20,80.54   L119.33,80.87 L119.47,81.19 L119.60,81.51 L119.73,81.82 L119.87,82.13 L120.00,82.43 L120.13,82.73 L120.27,83.03   L120.40,83.32 L120.53,83.60 L120.67,83.88 L120.80,84.15 L120.93,84.42 L121.07,84.69 L121.20,84.95 L121.33,85.20   L121.47,85.45 L121.60,85.70 L121.73,85.94 L121.87,86.17 L122.00,86.40 L122.13,86.63 L122.27,86.84 L122.40,87.06   L122.53,87.27 L122.67,87.47 L122.80,87.67 L122.93,87.86 L123.07,88.04 L123.20,88.23 L123.33,88.40 L123.47,88.57   L123.60,88.73 L123.73,88.89 L123.87,89.05 L124.00,89.19 L124.13,89.34 L124.27,89.47 L124.40,89.60 L124.53,89.73   L124.67,89.85 L124.80,89.96 L124.93,90.07 L125.07,90.17 L125.20,90.26 L125.33,90.35 L125.47,90.44 L125.60,90.52   L125.73,90.59 L125.87,90.66 L126.00,90.72 L126.13,90.77 L126.27,90.82 L126.40,90.86 L126.53,90.90 L126.67,90.93   L126.80,90.96 L126.93,90.98 L127.07,90.99 L127.20,91.00 L127.33,91.00 L127.47,91.00 L127.60,90.99 L127.73,90.97   L127.87,90.95 L128.00,90.92 L128.13,90.89 L128.27,90.85 L128.40,90.80 L128.53,90.75 L128.67,90.69 L128.80,90.63   L128.93,90.56 L129.07,90.49 L129.20,90.41 L129.33,90.32 L129.47,90.23 L129.60,90.13 L129.73,90.02 L129.87,89.92   L130.00,89.80 L130.13,89.68 L130.27,89.55 L130.40,89.42 L130.53,89.28 L130.67,89.14 L130.80,88.99 L130.93,88.83   L131.07,88.67 L131.20,88.51 L131.33,88.33 L131.47,88.16 L131.60,87.97 L131.73,87.78 L131.87,87.59 L132.00,87.39   L132.13,87.19 L132.27,86.98 L132.40,86.76 L132.53,86.54 L132.67,86.31 L132.80,86.08 L132.93,85.85 L133.07,85.60   L133.20,85.36 L133.33,85.11 L133.47,84.85 L133.60,84.59 L133.73,84.32 L133.87,84.05 L134.00,83.77 L134.13,83.49   L134.27,83.20 L134.40,82.91 L134.53,82.62 L134.67,82.32 L134.80,82.01 L134.93,81.70 L135.07,81.39 L135.20,81.07   L135.33,80.74 L135.47,80.41 L135.60,80.08 L135.73,79.75 L135.87,79.40 L136.00,79.06 L136.13,78.71 L136.27,78.36   L136.40,78.00 L136.53,77.64 L136.67,77.27 L136.80,76.90 L136.93,76.53 L137.07,76.15 L137.20,75.77 L137.33,75.38   L137.47,75.00 L137.60,74.60 L137.73,74.21 L137.87,73.81 L138.00,73.41 L138.13,73.00 L138.27,72.59 L138.40,72.18   L138.53,71.76 L138.67,71.34 L138.80,70.92 L138.93,70.50 L139.07,70.07 L139.20,69.64 L139.33,69.20 L139.47,68.77   L139.60,68.33 L139.73,67.89 L139.87,67.44 L140.00,67.00 L140.13,66.55 L140.27,66.09 L140.40,65.64 L140.53,65.18   L140.67,64.73 L140.80,64.26 L140.93,63.80 L141.07,63.34 L141.20,62.87 L141.33,62.40 L141.47,61.93 L141.60,61.46    "
           id="path11" />
      </g>
    </g>
    <g
       fill="none"
       color="black"
       stroke="currentColor"
       stroke-width="2.00"
       stroke-linecap="butt"
       stroke-linejoin="miter"
       id="g13" />
    <g
       fill="none"
       color="black"
       stroke="black"
       stroke-width="1.00"
       stroke-linecap="butt"
       stroke-linejoin="miter"
       id="g14" />
    <g
       fill="none"
       color="black"
       stroke="currentColor"
       stroke-width="1.00"
       stroke-linecap="butt"
       stroke-linejoin="miter"
       id="g15" />
  </g>
</svg>
