<?xml version="1.0" encoding="UTF-8" standalone="no"?>
<!-- Created with Inkscape (http://www.inkscape.org/) -->

<svg
   width="40mm"
   height="25mm"
   viewBox="0 0 40 25"
   version="1.1"
   id="svg1"
   inkscape:version="1.3.2 (091e20ef0f, 2023-11-25)"
   sodipodi:docname="tfgraph.svg"
   xmlns:inkscape="http://www.inkscape.org/namespaces/inkscape"
   xmlns:sodipodi="http://sodipodi.sourceforge.net/DTD/sodipodi-0.dtd"
   xmlns="http://www.w3.org/2000/svg"
   xmlns:svg="http://www.w3.org/2000/svg">
  <sodipodi:namedview
     id="namedview1"
     pagecolor="#ffffff"
     bordercolor="#000000"
     borderopacity="0.25"
     inkscape:showpageshadow="2"
     inkscape:pageopacity="0.0"
     inkscape:pagecheckerboard="0"
     inkscape:deskcolor="#d1d1d1"
     inkscape:document-units="mm"
     inkscape:zoom="4.7574603"
     inkscape:cx="89.018084"
     inkscape:cy="35.207861"
     inkscape:window-width="1916"
     inkscape:window-height="1034"
     inkscape:window-x="1920"
     inkscape:window-y="24"
     inkscape:window-maximized="1"
     inkscape:current-layer="layer1" />
  <defs
     id="defs1">
    <inkscape:path-effect
       effect="bspline"
       id="path-effect6"
       is_visible="true"
       lpeversion="1.3"
       weight="33.333333"
       steps="2"
       helper_size="0"
       apply_no_weight="true"
       apply_with_weight="true"
       only_selected="false"
       uniform="false" />
    <inkscape:path-effect
       effect="bspline"
       id="path-effect5"
       is_visible="true"
       lpeversion="1.3"
       weight="33.333333"
       steps="2"
       helper_size="0"
       apply_no_weight="true"
       apply_with_weight="true"
       only_selected="false"
       uniform="false" />
    <inkscape:path-effect
       effect="bspline"
       id="path-effect4"
       is_visible="true"
       lpeversion="1.3"
       weight="33.333333"
       steps="2"
       helper_size="0"
       apply_no_weight="true"
       apply_with_weight="true"
       only_selected="false"
       uniform="false" />
    <inkscape:path-effect
       effect="bspline"
       id="path-effect3"
       is_visible="true"
       lpeversion="1.3"
       weight="33.333333"
       steps="2"
       helper_size="0"
       apply_no_weight="true"
       apply_with_weight="true"
       only_selected="false"
       uniform="false" />
    <inkscape:path-effect
       effect="bspline"
       id="path-effect2"
       is_visible="true"
       lpeversion="1.3"
       weight="33.333333"
       steps="2"
       helper_size="0"
       apply_no_weight="true"
       apply_with_weight="true"
       only_selected="false"
       uniform="false" />
    <inkscape:path-effect
       effect="bspline"
       id="path-effect1"
       is_visible="true"
       lpeversion="1.3"
       weight="33.333333"
       steps="2"
       helper_size="0"
       apply_no_weight="true"
       apply_with_weight="true"
       only_selected="false"
       uniform="false" />
  </defs>
  <g
     inkscape:label="Layer 1"
     inkscape:groupmode="layer"
     id="layer1">
    <path
       style="fill:#ffaaaa;stroke:#000000;stroke-width:0.264999"
       d="m 6.6885557,3.9224415 c -0.018538,0.7887907 -0.037077,1.5775813 -0.037077,2.2438086 0,0.6662273 0.018538,1.209891 0.055614,1.50953 0.037076,0.299639 0.092691,0.3552538 0.1853815,0.4757516 C 6.9851657,8.2720296 7.1149327,8.457411 7.3466595,8.587178 7.5783863,8.7169449 7.9120726,8.7910974 8.1808756,8.8281737 8.4496785,8.86525 8.6535979,8.86525 8.8575174,8.7910975 9.061437,8.716945 9.2653564,8.56864 9.3673162,8.4481419 9.469276,8.3276438 9.469276,8.2349535 9.5156213,8.0588411 9.5619667,7.8827288 9.6546573,7.623195 9.747348,7.363661"
       id="path1"
       inkscape:path-effect="#path-effect1"
       inkscape:original-d="m 6.6885557,3.9224415 c -0.018539,0.7887907 -0.037076,1.5775813 -0.055615,2.3663719 0.018539,0.543664 0.037076,1.0873277 0.055615,1.6309917 0.055614,0.055614 0.1112287,0.1112287 0.1668431,0.1668433 0.129767,0.1853811 0.259534,0.3707625 0.3893008,0.5561439 0.3336866,0.074153 0.667373,0.1483053 1.0010595,0.2224577 0.2039194,0 0.4078388,0 0.6117584,0 0.2039194,-0.1483051 0.4078388,-0.2966101 0.6117585,-0.4449152 0,-0.092691 0,-0.1853813 0,-0.278072 C 9.5619667,7.8827288 9.6546574,7.623195 9.747348,7.363661" />
    <path
       style="fill:#ffaaaa;stroke:#000000;stroke-width:0.264999"
       d="M 6.6885557,5.7508433 C 7.3559285,5.7323052 8.0233014,5.713767 8.6906742,5.6952289"
       id="path2"
       inkscape:path-effect="#path-effect2"
       inkscape:original-d="M 6.6885557,5.7508433 C 7.3559285,5.7323039 8.0233014,5.713767 8.6906742,5.6952289" />
    <path
       style="fill:#ffaaaa;stroke:#000000;stroke-width:0.264999"
       d="m 13.8902,6.9508131 c 0.680548,-0.1816379 1.361096,-0.3632757 1.664294,-0.5375158 0.303198,-0.1742401 0.229045,-0.3410841 0.154893,-0.4245058 -0.07415,-0.083422 -0.148306,-0.083422 -0.231727,-0.1019596 -0.08342,-0.018538 -0.176113,-0.055615 -0.361495,-0.055615 -0.185381,10e-8 -0.463453,0.037076 -0.639564,0.055614 -0.176111,0.018538 -0.250266,0.018538 -0.398571,0.092691 -0.148305,0.074153 -0.370762,0.2224574 -0.509798,0.3429541 -0.139035,0.1204967 -0.194651,0.2131889 -0.21319,0.3614937 -0.01854,0.1483048 -2e-6,0.3522248 0.38003,0.6488348 0.380031,0.2966099 1.121556,0.6859107 1.631355,0.8434847 0.509798,0.1575741 0.78787,0.083422 1.065942,0.00927"
       id="path3"
       inkscape:path-effect="#path-effect3"
       inkscape:original-d="m 13.8902,6.9508131 c 0.680548,-0.181638 1.361096,-0.3632758 2.041644,-0.5449136 -0.07415,-0.1668433 -0.148305,-0.3336864 -0.222458,-0.5005297 -0.07415,0 -0.148305,0 -0.222457,0 -0.09269,-0.037076 -0.185382,-0.074153 -0.278073,-0.1112288 -0.278072,0.037076 -0.556144,0.074152 -0.834216,0.1112288 -0.07415,0 -0.148305,0 -0.222457,0 -0.222458,0.148305 -0.444915,0.29661 -0.667373,0.4449153 -0.05561,0.09269 -0.111229,0.1853801 -0.166843,0.2780702 0.01854,0.2039194 0.03708,0.4078391 0.05561,0.6117585 0.741526,0.3893008 1.483051,0.7786018 2.224576,1.1679026 0.278072,-0.074153 0.556144,-0.1483051 0.834216,-0.2224577" />
    <path
       style="fill:#ffaaaa;stroke:#000000;stroke-width:0.264999"
       d="m 21.189686,6.2147621 c -0.333686,-0.037076 -0.667373,-0.074152 -0.945445,-0.00927 -0.278072,0.064884 -0.500529,0.2317265 -0.528336,0.4171082 -0.02781,0.1853816 0.139035,0.3893015 0.417107,0.5654141 0.278072,0.1761126 0.667373,0.3244178 0.945445,0.4541848 0.278072,0.1297669 0.444916,0.240996 0.519068,0.3058799 0.07415,0.064884 0.05561,0.083424 0.02781,0.1204994 -0.0278,0.037075 -0.06488,0.092687 -0.315145,0.2595309 -0.250265,0.1668437 -0.713718,0.4449155 -1.056674,0.5839516 -0.342955,0.1390361 -0.565413,0.1390361 -0.862023,0.1390361 -0.29661,0 -0.667373,0 -1.038135,0"
       id="path4"
       inkscape:path-effect="#path-effect4"
       inkscape:original-d="M 21.189686,6.2147621 C 20.856,6.1776861 20.522313,6.1406097 20.188627,6.1035334 c -0.222458,0.1668433 -0.444915,0.3336864 -0.667373,0.5005298 0.166843,0.2039199 0.333686,0.4078401 0.50053,0.61176 0.3893,0.148305 0.778601,0.2966101 1.167902,0.4449154 0.166843,0.1112287 0.333687,0.2224574 0.50053,0.3336864 -0.01854,0.018537 -0.03708,0.037076 -0.05561,0.055614 -0.03708,0.055614 -0.07415,0.1112287 -0.111228,0.166843 -0.463454,0.2780721 -0.926907,0.5561441 -1.390361,0.8342162 -0.222457,0 -0.444915,0 -0.667372,0 -0.370763,0 -0.741526,0 -1.112288,0" />
    <path
       style="fill:#ffaaaa;stroke:#000000;stroke-width:0.264999"
       d="m 27.182831,4.4368868 c -0.03708,0.1112299 -0.07415,0.2224571 -0.09269,0.3553754 -0.01854,0.1329184 -0.01854,0.2875258 -0.04786,0.6823972 -0.02933,0.3948713 -0.08798,1.0300066 -0.132774,1.4713246 -0.0448,0.441318 -0.07574,0.6888188 -0.09121,1.0775465 -0.01547,0.3887277 -0.01547,0.9186825 0.01234,1.2582428 0.02781,0.3395604 0.08342,0.4887288 0.20392,0.5633126 0.120497,0.074584 0.30588,0.074584 0.609965,0.065315 0.304084,-0.00927 0.726872,-0.027807 1.154658,-0.1501851 C 29.226963,9.6378375 29.65975,9.411618 30.048619,9.2122162 30.437488,9.0128145 30.782438,8.8402308 30.965082,8.7345004 31.147726,8.6287699 31.168056,8.5899063 31.11334,8.4777817 31.058623,8.3656572 30.928856,8.1802751 30.799089,7.9948936"
       id="path5"
       inkscape:path-effect="#path-effect5"
       inkscape:original-d="m 27.182831,4.4368868 c -0.03708,0.1112287 -0.07415,0.2224577 -0.111228,0.3336864 0,0.1546074 0,0.3092148 0,0.4638222 -0.05865,0.6351355 -0.117303,1.2702707 -0.175956,1.9054061 -0.03094,0.2475005 -0.06188,0.4950013 -0.09282,0.7425018 0,0.5299549 0,1.0599097 0,1.5898646 0.05561,0.1491673 0.111228,0.2983346 0.166844,0.4475019 0.18538,0 0.370763,0 0.556143,0 0.422789,-0.018539 0.845577,-0.037076 1.268365,-0.055614 0.432784,-0.2262188 0.865571,-0.4524375 1.298355,-0.678656 0.344954,-0.1725845 0.689904,-0.3451688 1.034855,-0.5177531 0.02035,-0.03887 0.04067,-0.077739 0.061,-0.116609 -0.129765,-0.1853813 -0.259533,-0.3707627 -0.3893,-0.5561441" />
    <path
       style="fill:#ffaaaa;stroke:#000000;stroke-width:0.264999"
       d="m 27.209144,6.43769 c 1.245645,0 2.49129,0 3.736932,0"
       id="path6"
       inkscape:path-effect="#path-effect6"
       inkscape:original-d="m 27.209144,6.43769 c 1.245645,0 2.49129,0 3.736932,0" />
    <rect
       style="fill:#ffaaaa;stroke:#000000;stroke-width:0.264999"
       id="rect6"
       width="39.137413"
       height="24.110929"
       x="0.40040743"
       y="0.54399538"
       rx="1.5303785"
       ry="1.5303785" />
  </g>
</svg>
